<?xml version="1.0" standalone="no"?><!DOCTYPE svg PUBLIC "-//W3C//DTD SVG 1.1//EN" "http://www.w3.org/Graphics/SVG/1.1/DTD/svg11.dtd"><svg t="1669795030035" class="icon" viewBox="0 0 1024 1024" version="1.1" xmlns="http://www.w3.org/2000/svg" p-id="35694" xmlns:xlink="http://www.w3.org/1999/xlink" width="200" height="200"><path d="M21.25 746.64c62.934-61.684 258.86-106.648 490.752-106.648 231.922 0 427.846 44.964 490.78 106.648 13.782-13.53 21.188-27.842 21.188-42.652 0-82.496-229.204-149.336-511.966-149.336-282.734 0-511.968 66.84-511.968 149.336-0.002 14.81 7.434 29.124 21.214 42.652z" fill="#c4edff" p-id="35695" data-spm-anchor-id="a313x.7781069.0.i43" class=""></path><path d="M490.69 670.302h42.654v140.334h-42.654z" fill="#c4edff" p-id="35696" data-spm-anchor-id="a313x.7781069.0.i41" class=""></path><path d="M512.002 128.024c-153.148 0-277.296 124.148-277.296 277.296 0 153.176 124.148 277.324 277.296 277.324 153.178 0 277.326-124.148 277.326-277.324 0-153.148-124.148-277.296-277.326-277.296z m0 319.98c-23.562 0-42.656-19.124-42.656-42.684 0-23.562 19.094-42.656 42.656-42.656 23.592 0 42.684 19.094 42.684 42.656 0 23.558-19.092 42.684-42.684 42.684z" fill="#00adef" p-id="35697" data-spm-anchor-id="a313x.7781069.0.i38" class=""></path><path d="M512.002 128.024c-7.156 0-14.282 0.25-21.312 0.782 143.178 10.906 255.984 130.554 255.984 276.516 0 145.988-112.806 265.608-255.984 276.512 7.032 0.532 14.156 0.812 21.312 0.812 153.178 0 277.326-124.148 277.326-277.324 0-153.15-124.148-277.298-277.326-277.298z" fill="#FFFFFF" opacity=".2" p-id="35698"></path><path d="M512.002 320.012c-47.03 0-85.308 38.248-85.308 85.308 0 47.058 38.28 85.336 85.308 85.336 47.058 0 85.338-38.278 85.338-85.336 0-47.06-38.28-85.308-85.338-85.308z m0 127.992c-23.562 0-42.656-19.124-42.656-42.684 0-23.562 19.094-42.656 42.656-42.656 23.592 0 42.684 19.094 42.684 42.656 0 23.558-19.092 42.684-42.684 42.684z" fill="#c4edff" p-id="35699" data-spm-anchor-id="a313x.7781069.0.i40" class=""></path><path d="M1023.968 703.894c0-7.218-1.782-14.312-5.188-21.25-35.466 72.372-248.86 127.992-506.78 127.992-257.89 0-471.286-55.622-506.75-127.992-3.438 6.968-5.188 14.062-5.188 21.282L0.034 746.64c0 82.464 229.234 149.336 511.968 149.336 282.764 0 511.966-66.872 511.966-149.336V703.894z" fill="#1296db" p-id="35700" data-spm-anchor-id="a313x.7781069.0.i42" class=""></path></svg>