<?xml version="1.0" standalone="no"?><!DOCTYPE svg PUBLIC "-//W3C//DTD SVG 1.1//EN" "http://www.w3.org/Graphics/SVG/1.1/DTD/svg11.dtd"><svg t="1669692725752" class="icon" viewBox="0 0 1024 1024" version="1.1" xmlns="http://www.w3.org/2000/svg" p-id="5899" xmlns:xlink="http://www.w3.org/1999/xlink" width="200" height="200"><path d="M598.177 548H296a8 8 0 0 1-8-8v-56a8 8 0 0 1 8-8h302.177l-81.49-81.49A16 16 0 0 1 512 383.196v-75.882a8 8 0 0 1 13.657-5.657l187.716 187.716c12.496 12.496 12.496 32.758 0 45.254L525.657 722.343A8 8 0 0 1 512 716.686v-75.882a16 16 0 0 1 4.686-11.314l81.49-81.49zM840 840V184H632a8 8 0 0 1-8-8v-56a8 8 0 0 1 8-8h248c17.673 0 32 14.327 32 32v736c0 17.673-14.327 32-32 32H632a8 8 0 0 1-8-8v-56a8 8 0 0 1 8-8h208z m-656 0h208a8 8 0 0 1 8 8v56a8 8 0 0 1-8 8H144c-17.673 0-32-14.327-32-32V144c0-17.673 14.327-32 32-32h248a8 8 0 0 1 8 8v56a8 8 0 0 1-8 8H184v656z" fill="#00adef" p-id="5900" data-spm-anchor-id="a313x.7781069.0.i6" class="selected"></path></svg>