<?xml version="1.0" standalone="no"?><!DOCTYPE svg PUBLIC "-//W3C//DTD SVG 1.1//EN" "http://www.w3.org/Graphics/SVG/1.1/DTD/svg11.dtd"><svg t="1668494982514" class="icon" viewBox="0 0 1024 1024" version="1.1" xmlns="http://www.w3.org/2000/svg" p-id="17076" xmlns:xlink="http://www.w3.org/1999/xlink" width="200" height="200"><path d="M250.72 250.72m4 0l673.28 0q4 0 4 4l0 673.28q0 4-4 4l-673.28 0q-4 0-4-4l0-673.28q0-4 4-4Z" fill="#61D6C2" p-id="17077"></path><path d="M920 262.72V920H262.72V262.72H920m8-24H254.72a16 16 0 0 0-16 16V928a16 16 0 0 0 16 16H928a16 16 0 0 0 16-16V254.72a16 16 0 0 0-16-16z" fill="#333333" p-id="17078"></path><path d="M92 92m4 0l673.28 0q4 0 4 4l0 673.28q0 4-4 4l-673.28 0q-4 0-4-4l0-673.28q0-4 4-4Z" fill="#EDEDED" p-id="17079"></path><path d="M761.28 104v657.28H104V104h657.28m8-24H96a16 16 0 0 0-16 16v673.28a16 16 0 0 0 16 16h673.28a16 16 0 0 0 16-16V96a16 16 0 0 0-16-16z" fill="#333333" p-id="17080"></path><path d="M249.12 332.64h23.44V376L272 398.4a52.56 52.56 0 0 1 36.56-17.84c24 0 34.72 16 34.72 44.8V496h-24v-67.84c0-19.52-5.76-27.36-19.12-27.36-10.48 0-17.68 5.36-27.76 15.44V496h-23.28zM380.4 459.44v-57.12H364v-17.68l17.44-1.2L384 352h19.92v31.2h29.36v18.88h-29.2v57.36c0 13.52 4.72 20.56 16.4 20.56a33.6 33.6 0 0 0 12.16-2.64l4.32 17.44a72 72 0 0 1-22.16 4.08c-25.52 0.16-34.4-15.6-34.4-39.44zM457.28 459.44v-57.12H440.8v-17.68l17.44-1.2 2.64-31.2h19.92v31.2h29.36v18.88h-29.28v57.36c0 13.52 4.72 20.56 16.4 20.56a33.6 33.6 0 0 0 12.08-2.64l4.32 17.44a72 72 0 0 1-22.16 4.08c-25.44-0.08-34.24-15.84-34.24-39.68zM534.96 383.36h19.28l1.84 12.32h0.64a57.28 57.28 0 0 1 34.72-15.2c28.72 0 44.8 22.8 44.8 57.52 0 38.8-23.2 61.04-48.72 61.04a46.64 46.64 0 0 1-29.76-12.72l0.64 19.28v36.56h-23.44z m76.8 55.04c0-24-8-38.24-26.48-38.24a40 40 0 0 0-26.88 13.76v55.28a38.32 38.32 0 0 0 24.64 10.24c16.4 0.08 28.72-14.48 28.72-40.96z" fill="#333333" p-id="17081"></path></svg>