<svg id="图层_1" data-name="图层 1" xmlns="http://www.w3.org/2000/svg" viewBox="0 0 123.52 123.52"><defs><style>.cls-1{fill:#1fafd5;}.cls-2{fill:#eb5f33;}.cls-3{fill:#1b96d4;}</style></defs><path class="cls-1" d="M147,49.83a10.22,10.22,0,0,0-12.21,7.23,3.1,3.1,0,0,1-2.28,2.24,52.23,52.23,0,0,0-12.19,4.41,1.89,1.89,0,0,0,.87,3.58,1.79,1.79,0,0,0,.86-.21A49.32,49.32,0,0,1,133.44,63a1.66,1.66,0,0,1,1.87,1A10.2,10.2,0,1,0,147,49.83ZM144.62,65a5.26,5.26,0,1,1,5.26-5.26A5.26,5.26,0,0,1,144.62,65Z" transform="translate(-82.86 -49.56)"/><path class="cls-1" d="M170,156.26a1.89,1.89,0,0,0-2.56-.81,48.79,48.79,0,0,1-11.62,4.22,1.65,1.65,0,0,1-1.87-.94,10.18,10.18,0,0,0-10.17-6,10.32,10.32,0,0,0-9.33,10,10.19,10.19,0,0,0,20,2.9,3.21,3.21,0,0,1,2.34-2.3,52.1,52.1,0,0,0,12.39-4.52A1.89,1.89,0,0,0,170,156.26Zm-25.35,11.89a5.27,5.27,0,1,1,5.26-5.26A5.27,5.27,0,0,1,144.62,168.15Z" transform="translate(-82.86 -49.56)"/><path class="cls-1" d="M116.39,68.84a10.2,10.2,0,0,0-17.08,11.1,3.13,3.13,0,0,1,0,3.27A52.45,52.45,0,0,0,93.8,94.92,1.9,1.9,0,0,0,95,97.3a1.74,1.74,0,0,0,.59.1,1.89,1.89,0,0,0,1.8-1.32,48.66,48.66,0,0,1,5.18-11,1.66,1.66,0,0,1,2-.66,10.06,10.06,0,0,0,3.59.65,10.19,10.19,0,0,0,8.23-16.22Zm-4.51,9.74a5.26,5.26,0,1,1,0-7.44A5.25,5.25,0,0,1,111.88,78.58Z" transform="translate(-82.86 -49.56)"/><path class="cls-1" d="M194.35,125.25a1.91,1.91,0,0,0-2.38,1.24,48.59,48.59,0,0,1-5.19,11.14,1.64,1.64,0,0,1-2,.65,10.31,10.31,0,0,0-3.71-.69,10.17,10.17,0,1,0,8.91,5.23,3.16,3.16,0,0,1,0-3.25,52,52,0,0,0,5.55-11.94A1.89,1.89,0,0,0,194.35,125.25ZM184.8,151.5a5.26,5.26,0,1,1,0-7.44A5.26,5.26,0,0,1,184.8,151.5Z" transform="translate(-82.86 -49.56)"/><path class="cls-1" d="M97.28,120.6a10.2,10.2,0,0,0,5.93-10.18,10.31,10.31,0,0,0-10-9.29,10.19,10.19,0,0,0-2.82,20,3.18,3.18,0,0,1,2.31,2.34,52.18,52.18,0,0,0,4.42,12.24A1.9,1.9,0,0,0,100.5,134a48.23,48.23,0,0,1-4.15-11.55A1.66,1.66,0,0,1,97.28,120.6Zm-9.49-9.28a5.26,5.26,0,1,1,5.26,5.26A5.27,5.27,0,0,1,87.79,111.32Z" transform="translate(-82.86 -49.56)"/><path class="cls-1" d="M199,101.52a3.15,3.15,0,0,1-2.26-2.32,52.45,52.45,0,0,0-4.51-12.3,1.89,1.89,0,0,0-3.36,1.74,48.8,48.8,0,0,1,4.19,11.47,1.66,1.66,0,0,1-1,1.88A10.18,10.18,0,0,0,186,112.16a10.32,10.32,0,0,0,10,9.36,10.2,10.2,0,0,0,3-20Zm-2.81,15.06a5.26,5.26,0,1,1,5.26-5.26A5.25,5.25,0,0,1,196.18,116.58Z" transform="translate(-82.86 -49.56)"/><path class="cls-1" d="M129.5,158.65a48.55,48.55,0,0,1-11.2-5.3,1.65,1.65,0,0,1-.66-2,10.09,10.09,0,1,0-4.44,5.25,3.15,3.15,0,0,1,3.27,0,52.3,52.3,0,0,0,11.86,5.57,1.69,1.69,0,0,0,.58.1,1.9,1.9,0,0,0,.59-3.7Zm-21.34-5.6a5.27,5.27,0,1,1,3.72-1.55A5.26,5.26,0,0,1,108.16,153.05Z" transform="translate(-82.86 -49.56)"/><path class="cls-2" d="M188.29,67.65A10.19,10.19,0,0,0,176.08,66a3.16,3.16,0,0,1-3.24,0,52.34,52.34,0,0,0-11.79-5.47,1.9,1.9,0,1,0-1.15,3.62,48.57,48.57,0,0,1,11,5.13,1.63,1.63,0,0,1,.66,2,10.17,10.17,0,1,0,16.68-3.54ZM184.8,78.58a5.26,5.26,0,1,1,0-7.44A5.25,5.25,0,0,1,184.8,78.58Z" transform="translate(-82.86 -49.56)"/><path class="cls-3" d="M144.62,85.76a25.57,25.57,0,1,0,25.56,25.56A25.56,25.56,0,0,0,144.62,85.76Zm0,44.45a18.89,18.89,0,1,1,18.89-18.89A18.88,18.88,0,0,1,144.62,130.21Z" transform="translate(-82.86 -49.56)"/></svg>