<?xml version="1.0" standalone="no"?><!DOCTYPE svg PUBLIC "-//W3C//DTD SVG 1.1//EN" "http://www.w3.org/Graphics/SVG/1.1/DTD/svg11.dtd"><svg t="1669791831754" class="icon" viewBox="0 0 1024 1024" version="1.1" xmlns="http://www.w3.org/2000/svg" p-id="10711" xmlns:xlink="http://www.w3.org/1999/xlink" width="200" height="200"><path d="M408.224 529.184l17.632-2.688c0.736 3.392 2.272 6.016 4.576 7.776s5.504 2.656 9.632 2.656c4.544 0 7.968-0.832 10.24-2.496a5.536 5.536 0 0 0 2.304-4.672 4.672 4.672 0 0 0-1.248-3.328c-0.864-0.832-2.816-1.6-5.888-2.304-14.176-3.136-23.136-5.984-26.944-8.576a17.12 17.12 0 0 1-7.872-14.944c0-5.76 2.272-10.592 6.816-14.496s11.584-5.888 21.12-5.888c9.088 0 15.84 1.472 20.256 4.448s7.456 7.328 9.12 13.12l-16.576 3.072c-0.704-2.592-2.048-4.576-4.032-5.952s-4.8-2.048-8.48-2.048c-4.64 0-7.936 0.672-9.952 1.952a4.096 4.096 0 0 0-2.016 3.552c0 1.248 0.576 2.304 1.76 3.2 1.568 1.152 7.04 2.816 16.416 4.928s15.904 4.704 19.584 7.808a16.192 16.192 0 0 1 5.504 13.056c0 6.08-2.56 11.328-7.616 15.68s-12.608 6.56-22.56 6.56c-9.056 0-16.192-1.856-21.472-5.504s-8.672-8.64-10.304-14.912zM503.872 548.128l-26.752-66.368h18.432l12.512 33.888 3.616 11.328c0.96-2.88 1.568-4.768 1.824-5.696 0.576-1.888 1.216-3.744 1.888-5.632l12.64-33.888h18.048l-26.368 66.368h-15.84zM614.656 501.376l-17.312 3.136c-0.576-3.456-1.92-6.048-3.968-7.808s-4.736-2.624-8.032-2.624c-4.384 0-7.872 1.504-10.464 4.544s-3.904 8.064-3.904 15.168c0 7.872 1.344 13.44 3.968 16.672s6.208 4.864 10.656 4.864c3.328 0 6.048-0.928 8.192-2.848s3.616-5.152 4.512-9.792l17.248 2.944c-1.792 7.904-5.248 13.92-10.304 17.952s-11.904 6.048-20.448 6.048c-9.696 0-17.44-3.072-23.232-9.184s-8.672-14.592-8.672-25.44c0-10.976 2.88-19.488 8.672-25.6s13.632-9.152 23.488-9.152c8.064 0 14.528 1.76 19.296 5.216s8.256 8.768 10.304 15.904z" fill="#EF8D48" p-id="10712"></path><path d="M512 512m-416 0a416 416 0 1 0 832 0 416 416 0 1 0-832 0Z" fill="#c4edff" p-id="10713" data-spm-anchor-id="a313x.7781069.0.i5" class="selected"></path><path d="M512 960C264.96 960 64 759.04 64 512S264.96 64 512 64s448 200.96 448 448-200.96 448-448 448z m0-832C300.256 128 128 300.256 128 512s172.256 384 384 384 384-172.256 384-384S723.744 128 512 128z" fill="#00adef" p-id="10714" data-spm-anchor-id="a313x.7781069.0.i0" class=""></path><path d="M512 944c-98.688 0-176-189.76-176-432S413.312 80 512 80s176 189.76 176 432-77.312 432-176 432z m0-832c-69.536 0-144 160.704-144 400s74.464 400 144 400 144-160.704 144-400S581.536 112 512 112z" fill="#00adef" p-id="10715" data-spm-anchor-id="a313x.7781069.0.i3" class=""></path><path d="M256.256 777.984c-58.56 0-99.488-17.28-118.368-49.984-24.896-43.168-7.04-106.016 50.368-176.96 54.144-66.944 137.888-134.944 235.776-191.424 123.136-71.104 251.648-113.568 343.744-113.568 58.56 0 99.488 17.28 118.368 49.984 24.896 43.168 7.04 106.016-50.368 176.96-54.112 66.944-137.856 134.944-235.744 191.424-123.168 71.072-251.68 113.568-343.776 113.568zM767.776 278.016c-86.72 0-209.28 40.832-327.744 109.248-94.592 54.624-175.168 119.904-226.88 183.872-47.776 59.104-65.12 110.4-47.52 140.832 16.192 28.064 58.24 33.984 90.656 33.984 86.72 0 209.28-40.832 327.776-109.248 94.592-54.624 175.136-119.904 226.88-183.872 47.776-59.104 65.12-110.4 47.52-140.832-16.256-28.064-58.304-33.984-90.688-33.984z" fill="#00adef" p-id="10716" data-spm-anchor-id="a313x.7781069.0.i2" class=""></path><path d="M767.776 777.984c-92.096 0-220.608-42.464-343.744-113.568C214.24 543.328 88.544 381.472 137.888 296c18.88-32.672 59.808-49.984 118.368-49.984 92.096 0 220.64 42.464 343.776 113.568 97.888 56.512 181.632 124.512 235.744 191.424 57.408 70.976 75.296 133.824 50.368 176.96-18.88 32.704-59.808 50.016-118.368 50.016zM256.256 278.016c-32.416 0-74.464 5.92-90.656 33.984-34.752 60.224 67.232 205.056 274.432 324.704 118.496 68.416 241.024 109.248 327.744 109.248 32.416 0 74.464-5.92 90.656-33.984 17.568-30.432 0.256-81.76-47.52-140.832-51.744-63.968-132.288-129.248-226.88-183.872-118.528-68.384-241.056-109.248-327.776-109.248z" fill="#00adef" p-id="10717" data-spm-anchor-id="a313x.7781069.0.i1" class=""></path></svg>