<?xml version="1.0" standalone="no"?><!DOCTYPE svg PUBLIC "-//W3C//DTD SVG 1.1//EN" "http://www.w3.org/Graphics/SVG/1.1/DTD/svg11.dtd"><svg t="1668497619296" class="icon" viewBox="0 0 1024 1024" version="1.1" xmlns="http://www.w3.org/2000/svg" p-id="7169" xmlns:xlink="http://www.w3.org/1999/xlink" width="200" height="200"><path d="M779.3 194.1H281c-13.8 0-24.9 10.2-24.9 22.9v160.3h548.1V217c0-12.7-11.1-22.9-24.9-22.9zM355.7 314.3c-17.2 0-31.1-12.8-31.1-28.6s13.9-28.6 31.1-28.6 31.1 12.8 31.1 28.6c0.1 15.8-13.9 28.6-31.1 28.6zM256 652.1v160.3c0 12.7 11.1 22.9 24.9 22.9h498.3c13.8 0 24.9-10.2 24.9-22.9V652.1H256z m99.7 120.2c-17.2 0-31.1-12.8-31.1-28.6s13.9-28.6 31.1-28.6 31.1 12.8 31.1 28.6c0.1 15.8-13.9 28.6-31.1 28.6z" fill="#1E88E5" p-id="7170"></path><path d="M256 423.1v183.2h548.1V423.1H256z m99.7 120.2c-17.2 0-31.1-12.8-31.1-28.6s13.9-28.6 31.1-28.6 31.1 12.8 31.1 28.6c0.1 15.8-13.9 28.6-31.1 28.6z" fill="#64B5F6" p-id="7171"></path></svg>