<?xml version="1.0" standalone="no"?><!DOCTYPE svg PUBLIC "-//W3C//DTD SVG 1.1//EN" "http://www.w3.org/Graphics/SVG/1.1/DTD/svg11.dtd"><svg t="1668494240768" class="icon" viewBox="0 0 1024 1024" version="1.1" xmlns="http://www.w3.org/2000/svg" p-id="2805" xmlns:xlink="http://www.w3.org/1999/xlink" width="200" height="200"><path d="M522.632 0.002H501.32c-11.766 0-21.294 9.562-21.294 21.312v150.216c0 11.782 9.53 21.312 21.294 21.312h21.312a21.3 21.3 0 0 0 21.312-21.312V21.314c0.002-11.75-9.53-21.312-21.312-21.312z" fill="#E6E9ED" p-id="2806"></path><path d="M682.488 384.65c11.75 0 21.312-9.532 21.312-21.312 0-12.906 37.876-21.25 63.938-21.312 11.75 0 21.31-9.53 21.31-21.312 0-11.78-9.56-21.312-21.31-21.312-1 0-24.218 0.062-47.812 5.968-21.938 5.468-58.75 20.312-58.75 57.966a21.3 21.3 0 0 0 21.312 21.314zM767.738 512.524c-1 0-24.218 0.062-47.812 5.968-21.938 5.468-58.75 20.312-58.75 57.952 0 11.75 9.532 21.312 21.312 21.312 11.75 0 21.312-9.562 21.312-21.312 0-12.876 37.876-21.25 63.938-21.312 11.75 0 21.31-9.5 21.31-21.294 0-11.784-9.56-21.314-21.31-21.314zM767.738 725.628c-1 0-24.218 0.062-47.812 5.998-21.938 5.438-58.75 20.312-58.75 57.938 0 11.75 9.532 21.312 21.312 21.312 11.75 0 21.312-9.562 21.312-21.312 0-12.876 37.876-21.25 63.938-21.312 11.75 0 21.31-9.562 21.31-21.312s-9.56-21.312-21.31-21.312zM304.042 306.184c-23.594-5.876-46.81-5.938-47.794-5.938a21.276 21.276 0 0 0-21.296 21.28c-0.016 11.75 9.5 21.312 21.266 21.342 26.076 0.062 63.966 8.406 63.966 21.312 0 11.75 9.546 21.312 21.312 21.312s21.312-9.562 21.312-21.312c0-37.654-36.828-52.496-58.766-57.996zM304.042 519.304c-23.594-5.876-46.81-5.938-47.794-5.938a21.276 21.276 0 0 0-21.296 21.282c-0.016 11.732 9.5 21.294 21.266 21.358 26.076 0.062 63.966 8.376 63.966 21.312 0 11.75 9.546 21.25 21.312 21.25s21.312-9.5 21.312-21.25c0-37.7-36.828-52.514-58.766-58.014zM304.042 732.44c-23.594-5.874-46.81-5.998-47.794-5.998-11.766 0-21.282 9.56-21.296 21.31s9.5 21.312 21.266 21.312c26.076 0.124 63.966 8.438 63.966 21.312 0 11.812 9.546 21.312 21.312 21.312s21.312-9.5 21.312-21.312c0-37.624-36.828-52.436-58.766-57.936z" fill="#434A54" p-id="2807"></path><path d="M615.49 150.216H402.384c-11.766 0-21.312 9.532-21.312 21.312v63.936c0 11.78 9.546 21.312 21.312 21.312h213.106a21.296 21.296 0 0 0 21.31-21.312V171.53a21.298 21.298 0 0 0-21.31-21.314z" fill="#434A54" p-id="2808"></path><path d="M682.488 214.154H341.496c-11.766 0-21.312 9.532-21.312 21.312v767.22c0 11.75 9.546 21.312 21.312 21.312h340.992c11.75 0 21.312-9.562 21.312-21.312v-767.22c0-11.782-9.562-21.312-21.312-21.312z" fill="#656D78" p-id="2809"></path><path d="M510.446 299.402c-58.764 0-106.56 47.81-106.56 106.56 0 58.748 47.796 106.56 106.56 106.56 58.734 0 106.544-47.812 106.544-106.56 0-58.75-47.81-106.56-106.544-106.56z" fill="#ED5564" p-id="2810"></path><path d="M510.446 512.524c-58.764 0-106.56 47.794-106.56 106.542 0 58.75 47.796 106.562 106.56 106.562 58.734 0 106.544-47.812 106.544-106.562 0-58.748-47.81-106.542-106.544-106.542z" fill="#FFCE54" p-id="2811"></path><path d="M510.446 725.628c-58.764 0-106.56 47.81-106.56 106.558 0 58.75 47.796 106.56 106.56 106.56 58.734 0 106.544-47.81 106.544-106.56 0-58.746-47.81-106.558-106.544-106.558z" fill="#A0D468" p-id="2812"></path><path d="M527.054 805.064c-8.328 8.312-21.812 8.312-30.14 0s-8.328-21.812 0-30.124a21.216 21.216 0 0 1 30.14 0c8.328 8.312 8.328 21.812 0 30.124zM525.508 889.5c-8.312 8.312-21.812 8.312-30.124 0-8.328-8.376-8.328-21.876 0-30.188 8.312-8.312 21.812-8.312 30.124 0 8.328 8.312 8.328 21.812 0 30.188zM569.68 846.876c-8.312 8.312-21.812 8.312-30.14 0-8.328-8.376-8.328-21.874 0-30.186s21.828-8.312 30.14 0 8.312 21.81 0 30.186zM484.43 846.876c-8.326 8.312-21.81 8.312-30.138 0-8.312-8.376-8.312-21.874 0-30.186 8.328-8.312 21.812-8.312 30.138 0 8.328 8.312 8.328 21.81 0 30.186z" fill="#8CC153" p-id="2813"></path><path d="M527.054 591.944c-8.328 8.312-21.812 8.312-30.14 0s-8.328-21.812 0-30.124 21.812-8.312 30.14 0 8.328 21.81 0 30.124zM525.508 676.378c-8.312 8.312-21.812 8.312-30.124 0a21.36 21.36 0 0 1 0-30.188c8.312-8.312 21.812-8.312 30.124 0a21.36 21.36 0 0 1 0 30.188zM569.68 633.754c-8.312 8.312-21.812 8.312-30.14 0a21.36 21.36 0 0 1 0-30.186c8.328-8.312 21.828-8.312 30.14 0a21.388 21.388 0 0 1 0 30.186zM484.43 633.754c-8.326 8.312-21.81 8.312-30.138 0a21.388 21.388 0 0 1 0-30.186c8.328-8.312 21.812-8.312 30.138 0a21.36 21.36 0 0 1 0 30.186z" fill="#F6BB42" p-id="2814"></path><path d="M527.054 378.806a21.274 21.274 0 0 1-30.14 0c-8.328-8.312-8.328-21.812 0-30.124s21.812-8.312 30.14 0 8.328 21.812 0 30.124zM525.508 463.242c-8.312 8.312-21.812 8.312-30.124 0-8.328-8.312-8.328-21.812 0-30.156 8.312-8.312 21.812-8.312 30.124 0 8.328 8.344 8.328 21.844 0 30.156zM569.68 420.618c-8.312 8.312-21.812 8.312-30.14 0s-8.328-21.812 0-30.156c8.328-8.312 21.828-8.312 30.14 0 8.312 8.344 8.312 21.844 0 30.156zM484.43 420.618c-8.326 8.312-21.81 8.312-30.138 0-8.312-8.312-8.312-21.812 0-30.156 8.328-8.312 21.812-8.312 30.138 0 8.328 8.344 8.328 21.844 0 30.156z" fill="#DA4453" p-id="2815"></path></svg>