<?xml version="1.0" standalone="no"?><!DOCTYPE svg PUBLIC "-//W3C//DTD SVG 1.1//EN" "http://www.w3.org/Graphics/SVG/1.1/DTD/svg11.dtd"><svg t="1669692592818" class="icon" viewBox="0 0 1024 1024" version="1.1" xmlns="http://www.w3.org/2000/svg" p-id="2203" xmlns:xlink="http://www.w3.org/1999/xlink" width="200" height="200"><path d="M511 511.2m-447.5 0a447.5 447.5 0 1 0 895 0 447.5 447.5 0 1 0-895 0Z" fill="#00adef" p-id="2204" data-spm-anchor-id="a313x.7781069.0.i3" class="selected"></path><path d="M449.5 355.6h-39v-61.8c0-9.9-8-17.9-17.9-17.9s-17.9 8-17.9 17.9v61.8h-39c-24.7 0-44.8 20.1-44.8 44.8V622c0 24.7 20.1 44.8 44.8 44.8h39v61.8c0 9.9 8 17.9 17.9 17.9s17.9-8 17.9-17.9v-61.8h39c24.7 0 44.7-20.1 44.7-44.8V400.4c0.1-24.7-20-44.8-44.7-44.8zM335.7 630.9c-4.9 0-9-4-9-8.9V400.4c0-4.9 4-9 9-9h39v239.5h-39z m122.8-8.9c0 4.9-4 8.9-8.9 8.9h-39V391.4h39c4.9 0 8.9 4 8.9 9V622zM686.4 355.6h-39v-61.8c0-9.9-8-17.9-17.9-17.9s-17.9 8-17.9 17.9v61.8h-39c-24.7 0-44.8 20.1-44.8 44.8V622c0 24.7 20.1 44.8 44.8 44.8h39v61.8c0 9.9 8 17.9 17.9 17.9s17.9-8 17.9-17.9v-61.8h39c24.7 0 44.8-20.1 44.8-44.8V400.4c-0.1-24.7-20.1-44.8-44.8-44.8zM572.6 630.9c-4.9 0-9-4-9-8.9V400.4c0-4.9 4-9 9-9h39v239.5h-39z m122.7-8.9c0 4.9-4 8.9-8.9 8.9h-39V391.4h39c4.9 0 8.9 4 8.9 9V622z" fill="#FFFFFF" p-id="2205"></path></svg>