<?xml version="1.0" standalone="no"?><!DOCTYPE svg PUBLIC "-//W3C//DTD SVG 1.1//EN" "http://www.w3.org/Graphics/SVG/1.1/DTD/svg11.dtd"><svg t="1668497680570" class="icon" viewBox="0 0 1024 1024" version="1.1" xmlns="http://www.w3.org/2000/svg" p-id="10435" xmlns:xlink="http://www.w3.org/1999/xlink" width="200" height="200"><path d="M474.7776 563.2l25.9584 2.2528a50.2272 50.2272 0 0 0 15.616 49.5616l5.0176 3.9424 7.9872 5.0176a50.176 50.176 0 0 1 14.8992 67.072 48.0256 48.0256 0 0 1-10.0864 12.3392l-4.1984 3.2768-8.96 5.5808a50.7392 50.7392 0 0 0-20.0192 28.1088 49.4592 49.4592 0 0 0 0.3584 27.5456l2.5088 6.5536 2.3552 4.4544 16.384 29.184 2.56 3.84c13.312 18.3296 37.376 25.8048 58.88 18.944l5.7856-2.2528 8.448-4.2496a53.2992 53.2992 0 0 1 67.072 20.7872c2.4064 4.096 4.2496 8.5504 5.4272 13.1072l1.28 7.0144 0.2048 5.12H128A76.8 76.8 0 0 1 51.2 793.6V716.8a110.6432 110.6432 0 0 1 9.8816-49.2544c20.4288-47.3088 75.3152-70.2464 124.1088-81.92l9.6256-2.2016a656.2816 656.2816 0 0 1 88.1664-15.0016L344.1664 563.2h130.6112zM409.6512 102.4a204.8 204.8 0 1 1 0 409.6 204.8 204.8 0 0 1 0-409.6z" fill="#00adef" p-id="10436" data-spm-anchor-id="a313x.7781069.0.i5" class=""></path><path d="M759.7056 409.6c13.824 0 27.136 5.376 36.864 14.9504a50.176 50.176 0 0 1 15.0016 30.976l0.512 10.3936a51.2 51.2 0 0 0 38.5024 43.8784c11.7248 3.072 24.1152 2.048 35.072-2.7648l9.216-4.608c10.9568-4.8128 23.3472-5.8368 35.0208-2.7648 11.6736 3.072 21.8624 9.984 28.8768 19.456l2.7648 4.2496 17.0496 29.7984 2.3552 4.5056a49.5104 49.5104 0 0 1 2.8672 34.0992 50.7392 50.7392 0 0 1-20.0192 28.1088l-8.9088 5.632a50.5344 50.5344 0 0 0-14.336 15.7184 49.92 49.92 0 0 0 15.0016 65.792l7.8336 4.9664a49.9712 49.9712 0 0 1 17.3568 62.1568l-2.1504 4.096-17.2544 29.1328a53.0432 53.0432 0 0 1-67.072 20.7872l-9.1136-4.608a52.3264 52.3264 0 0 0-21.248-4.352c-13.9264 0-27.2896 5.4272-37.12 15.104a50.176 50.176 0 0 0-14.848 31.232l-0.3584 9.472a51.712 51.712 0 0 1-47.36 46.3872l-4.7616 0.2048h-34.304a53.0944 53.0944 0 0 1-37.376-14.7968 50.432 50.432 0 0 1-15.2064-31.1296l-0.512-10.3936a49.408 49.408 0 0 0-6.7584-20.1216 53.2992 53.2992 0 0 0-67.072-20.7872l-8.3968 4.2496a53.1968 53.1968 0 0 1-64.7168-16.6912l-2.56-3.8912-16.384-29.1328-2.304-4.4544a49.5104 49.5104 0 0 1-2.8672-34.0992 50.7392 50.7392 0 0 1 19.968-28.16l9.0112-5.5296a48.2304 48.2304 0 0 0 14.336-15.5648 50.176 50.176 0 0 0-14.9504-67.1232l-7.9872-5.0176a50.176 50.176 0 0 1-17.3568-62.7712l2.2016-4.096 16.384-28.672 2.7136-4.4032c7.0144-9.728 17.3568-16.8448 29.2352-19.968 11.8784-3.072 24.4736-1.9968 35.5328 3.072l9.1648 4.608c15.2576 6.8096 33.0752 6.0928 47.7696-2.2016a50.688 50.688 0 0 0 25.8048-39.68l0.2048-4.5056c0.1024-26.624 21.0944-48.3328 47.8208-50.5344L725.3504 409.6h34.304z m-17.3056 179.2a76.8 76.8 0 1 0 0 153.6 76.8 76.8 0 0 0 0-153.6z" fill="#a4edff" p-id="10437" data-spm-anchor-id="a313x.7781069.0.i7" class="selected"></path></svg>