<?xml version="1.0" standalone="no"?><!DOCTYPE svg PUBLIC "-//W3C//DTD SVG 1.1//EN" "http://www.w3.org/Graphics/SVG/1.1/DTD/svg11.dtd"><svg t="1669797962607" class="icon" viewBox="0 0 1024 1024" version="1.1" xmlns="http://www.w3.org/2000/svg" p-id="191021" xmlns:xlink="http://www.w3.org/1999/xlink" width="200" height="200"><path d="M192.61 70.83c5.41-0.78 10.89-1.24 16.36-1.08 202.32 0 404.64 0.01 606.95 0 35.69-0.13 70.67 17.93 91.84 46.56 13.93 18.57 22.12 41.42 22.99 64.63v638.07c-0.25 12.61 0.85 25.34-1.47 37.83-5.48 34.68-27.89 66-58.67 82.77-12.87 7.1-27.1 11.68-41.68 13.46-9.58 1.28-19.26 0.87-28.89 0.93H272.01c-22.35-0.08-44.7 0.15-67.04-0.11-36.19-1.09-71.15-20.4-91.45-50.34-11.88-17.16-18.93-37.61-20.19-58.44-0.56-9.03-0.25-18.08-0.33-27.12v-628c-0.09-12.16 1.11-24.41 4.54-36.11 7.96-28.25 27.19-53.08 52.46-67.97 13.01-7.79 27.61-12.91 42.61-15.08m-33.19 66.59c-12.95 13-20 31.32-19.92 49.6v644.93c-0.07 5.41 0.1 10.85 0.91 16.21 2.54 16.66 11.36 32.29 24.35 43.03 12.27 10.31 28.17 16.13 44.19 16.31h606.04c14.62-0.2 29.16-4.97 40.9-13.72 16.7-12.18 27.49-32.09 28.36-52.76 0.01-219.34 0-438.67 0-658-0.44-12.66-4.62-25.12-11.63-35.65-10.9-16.51-29.11-28.02-48.75-30.57-4.94-0.82-9.95-0.49-14.92-0.55H583.99c-49.44 0.11-98.9-0.22-148.33 0.16 0.21 60.85 0.03 121.7 0.09 182.55 0.03 6.64 0.48 13.79-3.1 19.71-4.88 9.26-16.61 13.96-26.58 10.95-4.34-0.98-7.81-3.86-11.36-6.35-20.8-14.8-41.52-29.7-62.39-44.39-22.05 15.75-44.12 31.46-66.19 47.18-5.16 3.73-11.91 5.29-18.17 4.01-10.06-1.68-18.24-10.83-18.71-21.03-0.01-64.26 0.02-128.53-0.01-192.79-7.76 0.01-15.52-0.02-23.28 0.01-17.45 0.77-34.47 8.53-46.54 21.16m116.34-21.17c-0.04 48.58 0.02 97.15-0.03 145.73 12.93-9.15 25.81-18.37 38.72-27.56 3.17-2.21 6.18-4.81 9.92-6.01 7.04-2.65 15.36-1.59 21.47 2.82 14.47 10.3 28.93 20.61 43.4 30.91 0.02-48.63 0.01-97.26 0-145.89H275.76z" fill="#00adef" p-id="191022" data-spm-anchor-id="a313x.7781069.0.i106" class=""></path><path d="M504.66 355.86c44.5-4.54 90.28 3.85 130.05 24.38 35.87 18.44 66.84 46.33 88.8 80.16 21.56 32.85 34.42 71.32 37.07 110.52 2.36 33.24-2.42 67.02-14.17 98.24-20.91 56.34-64.69 103.64-119.15 129.01-29.71 13.94-62.42 21.52-95.24 21.83-41.84 0.87-83.82-10.05-120.01-31.05-33.62-19.42-62.26-47.37-82.4-80.57-22.08-36-33.87-78.2-33.85-120.42-0.21-40.58 10.45-81.18 30.74-116.34 19.31-33.73 47.23-62.47 80.38-82.75 29.56-18.17 63.25-29.55 97.78-33.01m15.57 45.49c-49.39 1.91-97.41 24.75-130.26 61.63-28.17 31.16-45.29 72.1-47.42 114.07-2.44 41.02 9.34 82.73 32.91 116.4 20.99 30.29 51.12 54.19 85.51 67.49 40.42 15.87 86.43 16.79 127.5 2.74 28.42-9.66 54.4-26.39 75.04-48.18 21.27-22.38 36.89-50.09 44.83-79.94 9.78-36.42 8.17-75.8-4.67-111.28-13.4-37.28-39.08-69.99-72.08-91.9-32.56-21.88-72.2-32.81-111.36-31.03z" fill="#c4edff" p-id="191023" data-spm-anchor-id="a313x.7781069.0.i107" class=""></path><path d="M522.79 471.72c6.69-1.74 14.12-0.23 19.63 3.92 5.77 4.21 9.24 11.27 9.31 18.38 0.04 23.41 0 46.82 0.02 70.23 23.07 0 46.14 0.02 69.2-0.02 7.98-0.48 15.99 3.82 20.19 10.59 4.91 7.43 4.85 17.71 0.01 25.16-4.24 6.81-12.18 10.86-20.16 10.73-23.08 0.1-46.16 0-69.24 0.04 0 22.1-0.01 44.19 0.01 66.28 0.1 4.04-0.09 8.2-1.65 11.99-3.33 8.92-12.64 15.06-22.14 14.74-11.69 0.03-22.32-10.05-22.71-21.77-0.03-23.74 0.01-47.49-0.01-71.24-23.06-0.04-46.11 0.05-69.16-0.04-6.25 0-12.65-2.14-17.03-6.72-5.61-5.31-8.06-13.57-6.52-21.1 1.76-10.11 11.07-18.42 21.39-18.64 23.77 0 47.54 0.01 71.32 0 0.01-22.07 0-44.13 0-66.2 0.02-3.31-0.27-6.71 0.76-9.91 2.06-7.98 8.76-14.55 16.78-16.42z" fill="#00adef" p-id="191024" data-spm-anchor-id="a313x.7781069.0.i108" class=""></path></svg>