<?xml version="1.0" standalone="no"?><!DOCTYPE svg PUBLIC "-//W3C//DTD SVG 1.1//EN" "http://www.w3.org/Graphics/SVG/1.1/DTD/svg11.dtd"><svg t="1668494811314" class="icon" viewBox="0 0 1024 1024" version="1.1" xmlns="http://www.w3.org/2000/svg" p-id="16269" xmlns:xlink="http://www.w3.org/1999/xlink" width="200" height="200"><path d="M749.738 668.326H274.262c-31.17 40.422-85.518 127.89-100.92 261.37l338.658 36 338.658-36c-15.402-133.48-69.75-220.948-100.92-261.37z" fill="#C6D0DA" p-id="16270"></path><path d="M512 1004.838l316.222-18 22.436-57.142H173.342l22.436 57.142z" fill="#808B95" p-id="16271"></path><path d="M512 748.78c89.422 0 171.822-30 237.738-80.454-13.324-17.278-22.418-25.968-22.418-25.968H296.678s-9.094 8.69-22.418 25.968C340.176 718.78 422.578 748.78 512 748.78z" fill="#A0AAB7" p-id="16272"></path><path d="M512 694.362c222.906 0 347.122-167.002 356.788-355.676C859.122 150.01 703.08 0 512 0S164.878 150.01 155.212 338.686C164.88 527.362 291.014 694.362 512 694.362z" fill="#E7ECF1" p-id="16273"></path><path d="M512 677.37c-191.08 0-347.122-150.01-356.788-338.686a362.27 362.27 0 0 0-0.478 18.58c0 197.312 159.954 357.266 357.266 357.266s357.266-159.954 357.266-357.266c0-6.232-0.162-12.426-0.478-18.58C859.122 527.362 703.08 677.37 512 677.37z" fill="#C6D0DA" p-id="16274"></path><path d="M678.88 340.114C670.29 255.528 598.854 189.52 512 189.52c-86.362 0-157.482 65.264-166.728 149.162-0.672 6.102-0.004 168.33 166.728 168.33 167.746 0 167.452-161.258 166.88-166.898z" fill="#808B95" p-id="16275"></path><path d="M512 487.852c-86.36 0-157.45-65.27-166.698-149.166a169.15 169.15 0 0 0-1.048 18.58c0 92.644 75.102 167.746 167.746 167.746s167.746-75.102 167.746-167.746c0-6.284-0.374-12.476-1.048-18.58-9.25 83.894-80.338 149.166-166.698 149.166z" fill="#5E6B75" p-id="16276"></path><path d="M565.128 338.68c-7.676-21.944-28.564-37.684-53.128-37.684s-45.452 15.74-53.128 37.684c-2.036 5.818-0.12 56.856 53.128 56.856s55.164-51.038 53.128-56.856z" fill="#F6E080" p-id="16277"></path><path d="M512 376.374c-24.564 0-45.438-15.746-53.114-37.69a56.14 56.14 0 0 0-3.154 18.58c0 31.076 25.192 56.27 56.27 56.27 31.076 0 56.27-25.192 56.27-56.27 0-6.514-1.12-12.762-3.156-18.58-7.678 21.944-28.552 37.69-53.116 37.69z" fill="#ECCD61" p-id="16278"></path><path d="M512 986.838H195.778l3.186 8.112A45.78 45.78 0 0 0 241.578 1024h540.846a45.78 45.78 0 0 0 42.614-29.05l3.186-8.112z" fill="#5E6B75" p-id="16279"></path><path d="M527.514 112.438v-22.84a15.514 15.514 0 0 0-31.028 0v22.838A15.514 15.514 0 0 0 512 127.95a15.51 15.51 0 0 0 15.514-15.512z" fill="#808B95" p-id="16280"></path></svg>