<?xml version="1.0" encoding="utf-8"?>
<!-- Generator: Adobe Illustrator 25.2.1, SVG Export Plug-In . SVG Version: 6.00 Build 0)  -->
<svg version="1.1" xmlns="http://www.w3.org/2000/svg" xmlns:xlink="http://www.w3.org/1999/xlink" x="0px" y="0px"
	 viewBox="0 0 850.39 850.39" style="enable-background:new 0 0 850.39 850.39;" xml:space="preserve">
<style type="text/css">
	.st0{display:none;}
	.st1{display:inline;opacity:0.19;fill:#4DA7EB;}
	.st2{display:inline;fill:#4DA7EB;}
	.st3{opacity:0.19;fill:#3098FF;}
	.st4{fill:none;stroke:#FFFFFF;stroke-width:12;stroke-linecap:round;stroke-miterlimit:10;}
	.st5{fill:none;stroke:#FFFFFF;stroke-width:2.6382;stroke-linecap:round;stroke-miterlimit:10;}
	.st6{fill:none;stroke:#FFFFFF;stroke-width:2.3833;stroke-linecap:round;stroke-miterlimit:10;}
	.st7{fill:none;stroke:#FFFFFF;stroke-width:4.0695;stroke-linecap:round;stroke-miterlimit:10;}
	.st8{fill:none;stroke:#FFFFFF;stroke-width:3.7653;stroke-linecap:round;stroke-miterlimit:10;}
	.st9{display:inline;fill:#F1F6FB;}
	.st10{display:inline;fill:none;stroke:#F1F6FB;stroke-width:4.6866;stroke-miterlimit:10;}
	.st11{display:inline;fill:none;stroke:#F1F6FB;stroke-width:4;stroke-miterlimit:10;}
	.st12{display:inline;fill:#EDF1F4;}
	.st13{display:inline;fill:#1F5DAA;}
	.st14{display:inline;fill:#FFFFFF;}
	.st15{display:inline;fill:#85DFFF;}
	.st16{fill:#C4CACE;}
	.st17{fill:#F1F6FB;}
	.st18{fill:#EAEEF1;}
	.st19{fill:#1F5DAA;}
	.st20{fill:#85DFFF;}
	.st21{fill:#DBDEE1;}
	.st22{fill:#A9DBF5;}
	.st23{fill:#8EC5E0;}
	.st24{fill:#EDF1F4;}
	.st25{clip-path:url(#SVGID_4_);}
	.st26{fill:#66CC00;}
	.st27{fill:#60B202;}
	.st28{fill:#54B9DD;}
	.st29{fill:#231815;stroke:#231815;stroke-width:0.1529;stroke-miterlimit:10;}
	.st30{fill:#8A929F;}
	.st31{fill:#797E86;}
	.st32{fill:#FFFFFF;}
	.st33{display:inline;fill:#DBDEE1;}
	.st34{display:inline;fill:#C4CACE;}
	.st35{display:inline;fill:none;stroke:#F1F6FB;stroke-width:4.9888;stroke-miterlimit:10;}
	.st36{display:inline;fill:none;stroke:#F1F6FB;stroke-width:4.2579;stroke-miterlimit:10;}
	.st37{clip-path:url(#SVGID_5_);}
	.st38{fill:#231815;stroke:#231815;stroke-width:0.1338;stroke-miterlimit:10;}
	.st39{display:none;fill:#DBDEE1;}
	.st40{clip-path:url(#SVGID_6_);}
	.st41{fill:#231815;stroke:#231815;stroke-width:0.1144;stroke-miterlimit:10;}
	.st42{fill:#1C538E;}
</style>
<g id="background" class="st0">
</g>
<g id="图层_7" class="st0">
	<path class="st1" d="M26.98,468.59C89.38,240.03,76.13,175.46,295,63.79C506.65-44.18,867.45,28.58,821.95,339.74
		c-33.26,227.48-7.11,447.96-244.71,447.96S-33.57,690.37,26.98,468.59z"/>
	<path class="st2" d="M39.41,484.08C-38.33,260.28,112.16,43.36,420.64,34.77C639.09,28.68,801.37,51,834.39,355.23
		c24.8,228.55-68.29,419.59-305.89,419.59S68.98,569.18,39.41,484.08z"/>
</g>
<g id="babules">
	<circle class="st3" cx="240.59" cy="239.68" r="141.93"/>
	<circle class="st3" cx="505.78" cy="230.28" r="57.93"/>
	<circle class="st3" cx="677.08" cy="395.85" r="119.8"/>
	<circle class="st3" cx="308.53" cy="568.43" r="121.77"/>
	<circle class="st3" cx="579.45" cy="645.11" r="36.48"/>
	<path class="st4" d="M191.52,116.79c-15.24,6.6-37.39,22.07-49.79,40.51"/>
	<path class="st4" d="M134.34,174.73c-1.79,4.29-1.91,5.13-2.86,9.54"/>
	<path class="st4" d="M272.72,468.38c-15.24,6.6-37.39,22.07-49.79,40.51"/>
	<path class="st4" d="M300.33,460.99c-4.65-0.07-5.47,0.13-9.92,0.89"/>
	<path class="st5" d="M562.27,617.44c-3.18,1.8-7.66,5.7-9.94,10.02"/>
	<path class="st5" d="M551.12,631.44c-0.29,0.98-0.3,1.17-0.4,2.15"/>
	<path class="st4" d="M634.96,298.74c-12.9,5.09-32.59,22.82-37.72,33.91"/>
	<path class="st4" d="M586.71,357.58c-1.79,4.29-1.91,5.13-2.86,9.54"/>
	<circle class="st3" cx="473.47" cy="446.03" r="23.79"/>
	<path class="st6" d="M465.11,426.74c-2.56,1.01-6.47,4.53-7.49,6.73"/>
	<path class="st6" d="M455.53,438.43c-0.36,0.85-0.38,1.02-0.57,1.89"/>
	<path class="st7" d="M477.12,188.53c-4.37,1.73-11.05,7.74-12.79,11.5"/>
	<path class="st7" d="M460.75,208.49c-0.61,1.46-0.65,1.74-0.97,3.23"/>
	<circle class="st3" cx="144.85" cy="461.02" r="37.59"/>
	<path class="st8" d="M131.64,430.55c-4.05,1.6-10.22,7.16-11.83,10.64"/>
	<path class="st8" d="M116.5,449.01c-0.56,1.35-0.6,1.61-0.9,2.99"/>
</g>
<g id="图层_3">
	<g class="st0">
		<circle class="st9" cx="219.74" cy="137.37" r="10.83"/>
		<line class="st10" x1="219.74" y1="137.37" x2="228.62" y2="168.38"/>
		<circle class="st9" cx="273.77" cy="121.58" r="9.24"/>
		<line class="st11" x1="273.77" y1="121.58" x2="280.79" y2="148.21"/>
		<path class="st12" d="M290.09,262.47l-112.52,32.2c-23.05,6.6-47.09-6.74-53.69-29.8l-6.48-22.65
			c-7.04-24.61,7.2-50.27,31.81-57.31l109.71-31.4L290.09,262.47z"/>
		<path class="st9" d="M317.86,254.52l-65.15,18.64c-24.61,7.04-50.27-7.2-57.31-31.81l-5.68-19.83
			c-7.04-24.61,7.2-50.27,31.81-57.31l65.15-18.64c24.61-7.04,50.27,7.2,57.31,31.81l5.68,19.83
			C356.7,221.82,342.46,247.48,317.86,254.52z"/>
		<path class="st12" d="M317.86,254.52l-65.15,18.64c67.19-38.11,51.03-98.48,33.97-127.59c24.61-7.04,50.27,7.2,57.31,31.81
			l5.68,19.83C356.7,221.82,342.46,247.48,317.86,254.52z"/>
		<path class="st13" d="M308.11,231.41l-59.35,16.99c-13.33,3.81-27.23-3.9-31.04-17.23l-2.72-9.52
			c-3.81-13.33,3.9-27.23,17.23-31.04l59.35-16.99c13.33-3.81,27.23,3.9,31.04,17.23l2.72,9.52
			C329.15,213.7,321.44,227.6,308.11,231.41z"/>
		<path class="st14" d="M170.14,261.62l-9.22,2.64c-6.12,1.75-12.51-1.79-14.26-7.92l-5.62-19.64c-1.75-6.12,1.79-12.51,7.92-14.26
			l9.22-2.64c6.12-1.75,12.51,1.79,14.26,7.92l5.62,19.64C179.81,253.48,176.27,259.87,170.14,261.62z"/>
		<path class="st12" d="M170.14,261.62l-9.22,2.64c8.24-4.09,15.61-15.74,11.51-36.54l5.62,19.64
			C179.81,253.48,176.27,259.87,170.14,261.62z"/>
		<path class="st15" d="M248.71,229.49L248.71,229.49c-2.4,0.69-4.91-0.7-5.59-3.1l-4.19-14.65c-0.69-2.4,0.7-4.91,3.1-5.59h0
			c2.4-0.69,4.91,0.7,5.59,3.1l4.19,14.65C252.5,226.3,251.11,228.81,248.71,229.49z"/>
		<path class="st15" d="M299.06,215.08L299.06,215.08c-2.4,0.69-4.91-0.7-5.59-3.1l-4.19-14.65c-0.69-2.4,0.7-4.91,3.1-5.59v0
			c2.4-0.69,4.91,0.7,5.59,3.1l4.19,14.65C302.85,211.89,301.46,214.4,299.06,215.08z"/>
	</g>
	<g>
		<path class="st16" d="M138.42,264.93l-7.88,1.95c-5.24,1.3-10.53-1.89-11.83-7.13l-4.16-16.79c-1.3-5.24,1.89-10.53,7.13-11.83
			l7.88-1.95c5.24-1.3,10.53,1.89,11.83,7.13l4.16,16.79C146.85,258.34,143.66,263.63,138.42,264.93z"/>
		<path class="st16" d="M345.86,213.5l-7.88,1.95c-5.24,1.3-10.53-1.89-11.83-7.13l-4.16-16.79c-1.3-5.24,1.89-10.53,7.13-11.83
			l7.88-1.95c5.24-1.3,10.53,1.89,11.83,7.13l4.16,16.79C354.29,206.9,351.09,212.2,345.86,213.5z"/>
		<g id="face_1_">
			<path class="st17" d="M182.15,285.89l128.38-30.4c22.96-5.44,37.16-28.45,31.72-51.41l-2.53-10.7
				c-5.44-22.96-28.45-37.16-51.41-31.72l-128.38,30.4c-22.96,5.44-37.16,28.45-31.72,51.41l2.53,10.7
				C136.18,277.13,159.2,291.33,182.15,285.89z"/>
			<path class="st18" d="M182.15,285.89l19.68-4.66c0,0-58.82,13.93-73.63-57.45c-1.49,6.28-1.58,12.99,0.01,19.69l2.53,10.7
				C136.18,277.13,159.2,291.33,182.15,285.89z"/>
			<path class="st19" d="M170.38,272.82l143.93-34.08c5.88-1.39,9.51-7.28,8.12-13.16l-10.02-42.33c-1.39-5.88-7.28-9.51-13.16-8.12
				l-143.93,34.08c-5.88,1.39-9.51,7.28-8.12,13.16l10.02,42.33C158.61,270.58,164.5,274.21,170.38,272.82z"/>
			<path class="st20" d="M201.92,248.06L201.92,248.06c3.4-0.8,5.5-4.21,4.7-7.61l-4.73-19.99c-0.8-3.4-4.21-5.5-7.61-4.7l0,0
				c-3.4,0.8-5.5,4.21-4.7,7.61l4.73,19.99C195.12,246.77,198.52,248.87,201.92,248.06z"/>
			<path class="st20" d="M275.48,230.64L275.48,230.64c3.4-0.8,5.5-4.21,4.7-7.61l-4.73-19.99c-0.8-3.4-4.21-5.5-7.61-4.7v0
				c-3.4,0.8-5.5,4.21-4.7,7.61l4.73,19.99C268.68,229.35,272.09,231.45,275.48,230.64z"/>
		</g>
		<g>
			
				<rect x="272.4" y="146" transform="matrix(-0.9731 0.2304 -0.2304 -0.9731 579.3803 242.7768)" class="st17" width="6.23" height="18.43"/>
			<circle class="st17" cx="271.88" cy="139.88" r="9.96"/>
			
				<rect x="170.36" y="170.17" transform="matrix(-0.9731 0.2304 -0.2304 -0.9731 383.6104 313.9645)" class="st17" width="6.23" height="18.43"/>
			<circle class="st17" cx="169.84" cy="164.05" r="9.96"/>
		</g>
	</g>
	<g>
		<path class="st21" d="M277.03,341.68l-2.82,0.97c-6.42,2.2-13.41-1.22-15.62-7.64l-3.58-10.42l26.07-8.95l3.58,10.42
			C286.87,332.48,283.45,339.47,277.03,341.68z"/>
		<path class="st16" d="M277.03,341.68c-5.74,1.59-14.23,0.29-15.91-6.4l-3.58-10.42l23.55-9.22l3.58,10.42
			C286.87,332.48,283.45,339.47,277.03,341.68z"/>
		<path class="st22" d="M292.1,308.91c5.26,15.33-5.29,19.09-20.18,24.2c-14.89,5.11-28.49,9.64-33.75-5.69
			c-5.26-15.33,1.21-35.8,16.1-40.91C269.17,281.4,286.84,293.58,292.1,308.91z"/>
		<path class="st23" d="M292.1,308.91c5.26,15.33-5.29,19.09-20.18,24.2c-5.96,2.05-11.71,4-16.81,4.62
			c-7.63,0.93-15.73-46.11-0.84-51.22C269.17,281.4,286.84,293.58,292.1,308.91z"/>
		<path class="st17" d="M292.57,301.04c5.8,16.89-6.23,21.17-23.21,26.99c-16.98,5.83-32.47,11-38.27-5.89
			c-5.8-16.89,1.8-39.59,18.77-45.42C266.84,270.89,286.77,284.15,292.57,301.04z"/>
		<path class="st24" d="M292.57,301.04c5.8,16.89-6.23,21.17-23.21,26.99c-8.19,2.81-16.03,5.47-22.61,5.57
			c-7.06,0.11-13.86-51.05,3.11-56.88C266.84,270.89,286.77,284.15,292.57,301.04z"/>
		<g>
			<defs>
				<path id="SVGID_2_" d="M292.57,301.04c5.8,16.89-6.23,21.17-23.21,26.99c-8.19,2.81-16.03,5.47-22.61,5.57
					c-7.06,0.11-13.86-51.05,3.11-56.88C266.84,270.89,286.77,284.15,292.57,301.04z"/>
			</defs>
			<clipPath id="SVGID_4_">
				<use xlink:href="#SVGID_2_"  style="overflow:visible;"/>
			</clipPath>
			<g class="st25">
				<path class="st21" d="M282.84,318.1l-32.43,11.13c-2.77,0.95-5.78-0.52-6.73-3.29l-3.16-9.21c-0.95-2.77,0.52-5.78,3.29-6.73
					l32.43-11.13c2.77-0.95,5.78,0.52,6.73,3.29l3.16,9.21C287.08,314.13,285.61,317.15,282.84,318.1z"/>
				<g>
					<path class="st26" d="M281.44,316.9l-31.84,10.93c-2.61,0.89-5.45-0.49-6.34-3.1l-2.78-8.1c-0.89-2.61,0.49-5.45,3.1-6.34
						l31.84-10.93c2.61-0.89,5.45,0.49,6.34,3.1l2.78,8.1C285.44,313.17,284.05,316.01,281.44,316.9z"/>
				</g>
				<path class="st27" d="M275.34,299.38l-0.14,0.05c-0.87,10.58-7.31,20.38-17.33,25.56l23.49-8.06c2.61-0.89,4-3.73,3.1-6.34
					l-2.78-8.1C280.78,299.88,277.95,298.49,275.34,299.38z"/>
				<g>
					<path class="st17" d="M255.89,315.48c0.22,0.65,0.28,1.3,0.18,1.96c-0.1,0.66-0.35,1.24-0.74,1.74
						c-0.39,0.5-0.9,0.85-1.51,1.06c-0.91,0.31-1.82,0.23-2.75-0.25l0.94,2.75l1.32-0.45l0.42,1.21l-3.89,1.33l-0.42-1.21l1.23-0.42
						l-2.61-7.59l-1.14,0.39l-0.42-1.22l2.47-0.85l0.38,1.11c0.2-0.52,0.46-0.95,0.8-1.28c0.34-0.34,0.74-0.58,1.2-0.74
						c0.64-0.22,1.27-0.25,1.88-0.1c0.61,0.15,1.15,0.45,1.61,0.9C255.32,314.28,255.66,314.83,255.89,315.48 M253.37,319.01
						c0.37-0.13,0.67-0.35,0.89-0.67c0.22-0.32,0.35-0.7,0.39-1.13c0.04-0.44-0.01-0.86-0.16-1.28c-0.15-0.43-0.37-0.78-0.68-1.08
						c-0.31-0.3-0.66-0.49-1.06-0.59c-0.4-0.1-0.8-0.09-1.2,0.05c-0.42,0.14-0.76,0.39-1.02,0.73c-0.26,0.34-0.42,0.73-0.47,1.16
						c-0.06,0.44-0.01,0.88,0.14,1.33c0.25,0.72,0.66,1.21,1.25,1.46C252.03,319.24,252.67,319.25,253.37,319.01"/>
					<path class="st17" d="M257.2,308.52c0.08,0.22,0.06,0.44-0.04,0.66c-0.1,0.22-0.27,0.36-0.48,0.44
						c-0.22,0.08-0.43,0.06-0.65-0.05c-0.21-0.11-0.35-0.28-0.43-0.5s-0.07-0.44,0.03-0.66c0.1-0.22,0.26-0.36,0.48-0.44
						c0.23-0.08,0.45-0.06,0.66,0.04C256.98,308.12,257.12,308.29,257.2,308.52 M260.91,316.23l0.42,1.21l-3.43,1.18l-0.42-1.21
						l1.06-0.36l-1.54-4.49l-1.06,0.36l-0.42-1.22l2.4-0.82l1.96,5.71L260.91,316.23z"/>
					<path class="st17" d="M268.88,311.02c0.22,0.65,0.28,1.3,0.18,1.96c-0.1,0.66-0.35,1.24-0.74,1.74
						c-0.39,0.5-0.9,0.85-1.51,1.06c-0.91,0.31-1.82,0.23-2.75-0.25l0.94,2.75l1.32-0.45l0.42,1.21l-3.89,1.33l-0.42-1.21l1.23-0.42
						l-2.61-7.59l-1.14,0.39l-0.42-1.22l2.47-0.85l0.38,1.11c0.2-0.52,0.46-0.95,0.8-1.28c0.34-0.34,0.74-0.58,1.2-0.74
						c0.64-0.22,1.27-0.25,1.88-0.1c0.61,0.15,1.15,0.45,1.61,0.9C268.31,309.82,268.66,310.37,268.88,311.02 M266.36,314.55
						c0.37-0.13,0.67-0.35,0.89-0.67c0.22-0.32,0.35-0.7,0.39-1.13c0.04-0.44-0.01-0.86-0.16-1.28c-0.15-0.43-0.37-0.78-0.68-1.08
						c-0.31-0.3-0.66-0.49-1.06-0.59c-0.4-0.1-0.8-0.09-1.2,0.05c-0.42,0.14-0.76,0.39-1.02,0.73c-0.26,0.34-0.42,0.73-0.47,1.16
						c-0.06,0.44-0.01,0.88,0.14,1.33c0.25,0.72,0.66,1.21,1.25,1.46C265.02,314.78,265.66,314.79,266.36,314.55"/>
					<polygon class="st17" points="271.15,307.7 273.96,311.1 274.05,306.7 273.15,307.01 272.73,305.8 275.97,304.68 276.39,305.9 
						275.39,306.24 275.06,316.2 272.8,316.97 272.39,315.79 273.73,315.33 273.83,313.02 269.7,308.2 268.56,308.59 268.14,307.37 
						271.54,306.2 271.96,307.42 					"/>
				</g>
			</g>
		</g>
		<g>
			
				<ellipse transform="matrix(0.286 -0.9582 0.9582 0.286 -116.8651 433.9038)" class="st28" cx="232.72" cy="295.37" rx="7.23" ry="5.02"/>
			
				<ellipse transform="matrix(0.286 -0.9582 0.9582 0.286 -117.5069 432.1478)" class="st29" cx="231.22" cy="294.92" rx="4.98" ry="3.46"/>
		</g>
		<g>
			
				<ellipse transform="matrix(0.6246 -0.781 0.781 0.6246 -117.4275 319.0169)" class="st28" cx="273.1" cy="281.65" rx="5.02" ry="7.23"/>
			
				<ellipse transform="matrix(0.6246 -0.781 0.781 0.6246 -116.1065 319.3213)" class="st29" cx="274.08" cy="280.42" rx="3.46" ry="4.98"/>
		</g>
		<g>
			<g>
				<path class="st30" d="M233.12,296.4c-0.54,0.98-2.76,2.93-3.33,3.29c-1.91,1.24-3.92,2.66-7.15,4.64
					c-5.11,3.13-11.54,6.92-12.62,7.73l-4.34-5.83c1.28-0.95,5.85-3.7,13.22-8.13c4.31-2.58,9.11-5.47,11.18-6.79
					c0.53-0.34,1.19-0.43,1.78-0.2C234.05,291.98,234.14,294.55,233.12,296.4z"/>
			</g>
			<g>
				<path class="st31" d="M232.03,296.79c-1.7,2.15-4.17,3.22-9.7,6.98c-4.92,3.34-11.23,7.48-12.31,8.29l-4.34-5.83
					c1.28-0.95,5.85-3.7,13.22-8.13c4.31-2.58,7.89-4.77,9.96-6.1c0.53-0.34,1.21-0.47,1.78-0.2
					C231.99,292.45,232.74,295.89,232.03,296.79z"/>
			</g>
			<path class="st19" d="M189.25,312.64c-1.07-1.56-4.84-0.24-6.13,1.07c-1.3,1.31,1.21,4.72,4.25,3
				C190.42,315,190.29,314.16,189.25,312.64z"/>
			<path class="st19" d="M188.43,321.72c-1.74,1.19-0.92,2.44,0.46,2.64c1.38,0.2,4-1.54,4.82-2.37s0.37-3.52-0.84-3.07
				C191.67,319.35,188.43,321.72,188.43,321.72z"/>
			<path class="st19" d="M195.09,328c-0.76,1.64-0.63,4.74,1.35,2.71s3.7-4.02,3.72-5.31c0.02-1.29-1-3.41-2.47-1.92
				S195.09,328,195.09,328z"/>
			<path class="st32" d="M214.79,299.2l5.22,7.39c1.23,1.75,0.94,4.13-0.68,5.47l-11.55,9.53c-1.8,1.48-4.5,1.1-5.87-0.84
				l-6.52-9.23c-1.37-1.94-0.83-4.61,1.17-5.81l12.84-7.69C211.21,296.93,213.56,297.45,214.79,299.2z"/>
			<path class="st17" d="M201.54,320.22l-6.14-8.7c-1.37-1.94-0.83-4.61,1.17-5.81l12.84-7.69
				C204.11,302.67,195.72,309.9,201.54,320.22z"/>
		</g>
		<g>
			<g>
				<path class="st30" d="M271.21,279.11c0.14-2.11,2.45-1.96,4.05-1.54c2.37,0.62,5.75,1.46,8.86,2.24
					c7.18,1.79,11.63,2.92,12.92,3.38l-2.11,5.88c-1.09-0.39-7.32-1.95-12.33-3.2c-3.83-0.96-6.82-1.71-8.93-2.26
					C271.93,283.16,271.07,281.22,271.21,279.11z"/>
			</g>
			<g>
				<path class="st31" d="M271.2,279.82c0.11-1.61,2.53-1.79,3.86-1.54c2.48,0.47,6.77,1.63,10.19,2.49
					c7.18,1.79,11.22,2.15,12.51,2.61l-2.11,5.88c-1.09-0.39-7.32-1.95-12.33-3.2c-4.38-1.09-7.66-1.92-9.79-2.48
					C272.3,283.25,271.1,281.43,271.2,279.82z"/>
			</g>
			<path class="st19" d="M316.44,285.71c0.49-1.55,3.92-1.4,5.32-0.65c1.4,0.75,0.19,4.19-2.75,3.54
				C316.07,287.94,315.97,287.22,316.44,285.71z"/>
			<path class="st19" d="M319.4,292.97c1.73,0.55,1.37,1.77,0.29,2.29s-3.68-0.26-4.56-0.74c-0.88-0.48-1.18-2.8-0.08-2.74
				S319.4,292.97,319.4,292.97z"/>
			<path class="st19" d="M315.48,299.81c1.04,1.16,1.7,3.75-0.44,2.57c-2.14-1.18-4.05-2.38-4.39-3.44
				c-0.34-1.06-0.03-3.06,1.55-2.2C313.79,297.6,315.48,299.81,315.48,299.81z"/>
			<path class="st17" d="M292.06,281.04l-2.45,7.39c-0.58,1.75,0.26,3.63,1.93,4.33l11.89,4.95c1.85,0.77,3.98-0.22,4.62-2.16
				l3.05-9.22c0.64-1.94-0.47-4-2.42-4.49l-12.49-3.12C294.44,278.28,292.64,279.29,292.06,281.04z"/>
			<path class="st24" d="M292.48,281.97l-2.86,6.45c-0.58,1.75,0.26,3.63,1.93,4.33l11.89,4.95c1.85,0.77,3.98-0.22,4.62-2.16
				l2.81-8.51c0.64-1.94-0.47-4-2.42-4.49l-11.83-2.89C294.86,279.22,293.05,280.23,292.48,281.97z"/>
		</g>
	</g>
</g>
<g id="图层_5" class="st0">
	<circle class="st9" cx="723.02" cy="323.06" r="6.35"/>
	<line class="st10" x1="723.02" y1="323.06" x2="715.38" y2="340.37"/>
	<circle class="st9" cx="753.3" cy="336.22" r="5.42"/>
	<line class="st11" x1="753.3" y1="336.22" x2="746.47" y2="350.86"/>
	<path class="st33" d="M707.77,405.86l-62.82-27.72c-12.87-5.68-18.7-20.72-13.02-33.59l5.58-12.64
		c6.06-13.74,22.11-19.96,35.85-13.9l61.25,27.03L707.77,405.86z"/>
	<path class="st9" d="M723.27,412.71l-36.37-16.05c-13.74-6.06-19.96-22.11-13.9-35.85l4.89-11.07
		c6.06-13.74,22.11-19.96,35.85-13.9l36.37,16.05c13.74,6.06,19.96,22.11,13.9,35.85l-4.89,11.07
		C753.06,412.55,737.01,418.77,723.27,412.71z"/>
	<path class="st13" d="M727.55,398.63L694.42,384c-7.44-3.28-10.81-11.98-7.53-19.42l2.35-5.31c3.28-7.44,11.98-10.81,19.42-7.53
		l33.14,14.62c7.44,3.28,10.81,11.98,7.53,19.42l-2.35,5.31C743.69,398.54,734.99,401.91,727.55,398.63z"/>
	<path class="st34" d="M654.01,360.45l-5.15-2.27c-3.42-1.51-4.97-5.5-3.46-8.92l4.84-10.97c1.51-3.42,5.5-4.97,8.92-3.46l5.14,2.27
		c3.42,1.51,4.97,5.5,3.46,8.92L662.93,357C661.43,360.41,657.43,361.96,654.01,360.45z"/>
	<path class="st15" d="M701.49,375.46L701.49,375.46c-1.34-0.59-1.95-2.16-1.36-3.5l3.61-8.18c0.59-1.34,2.16-1.95,3.5-1.36l0,0
		c1.34,0.59,1.95,2.16,1.36,3.5l-3.61,8.18C704.4,375.45,702.83,376.05,701.49,375.46z"/>
	<path class="st15" d="M729.6,387.87L729.6,387.87c-1.34-0.59-1.95-2.16-1.36-3.5l3.61-8.18c0.59-1.34,2.16-1.95,3.5-1.36l0,0
		c1.34,0.59,1.95,2.16,1.36,3.5l-3.61,8.18C732.51,387.85,730.94,388.46,729.6,387.87z"/>
</g>
<g id="图层_6">
	<g class="st0">
		<circle class="st9" cx="721.98" cy="315.31" r="9.12"/>
		<line class="st35" x1="721.98" y1="315.31" x2="710.95" y2="340.12"/>
		<circle class="st9" cx="765.38" cy="334.31" r="7.78"/>
		<line class="st36" x1="765.38" y1="334.31" x2="755.52" y2="355.28"/>
		<path class="st12" d="M714.27,440.52l-90.01-40.01c-18.44-8.2-26.75-29.79-18.55-48.24l8.05-18.12
			c8.75-19.69,31.8-28.55,51.49-19.8l87.76,39.01L714.27,440.52z"/>
		<path class="st9" d="M722.01,443.92l-52.12-23.17c-19.69-8.75-28.55-31.8-19.8-51.49l7.05-15.86c8.75-19.69,31.8-28.55,51.49-19.8
			l52.12,23.17c19.69,8.75,28.55,31.8,19.8,51.49l-7.05,15.86C764.74,443.81,741.69,452.67,722.01,443.92z"/>
		<path class="st12" d="M722.01,443.92l-52.12-23.17c63.95,11.7,86.14-35.98,90.85-63.99c19.69,8.75,28.55,31.8,19.8,51.49
			l-7.05,15.86C764.74,443.81,741.69,452.67,722.01,443.92z"/>
		<path class="st13" d="M728.2,423.74l-47.48-21.1c-10.66-4.74-15.47-17.23-10.73-27.89l3.39-7.62
			c4.74-10.66,17.23-15.47,27.89-10.73l47.48,21.1c10.66,4.74,15.47,17.23,10.73,27.89l-3.39,7.62
			C751.35,423.68,738.86,428.48,728.2,423.74z"/>
		<path class="st14" d="M627,370.86l-7.37-3.28c-4.9-2.18-7.11-7.92-4.93-12.81l6.98-15.71c2.18-4.9,7.92-7.11,12.81-4.93l7.37,3.28
			c4.9,2.18,7.11,7.92,4.93,12.81l-6.98,15.71C637.64,370.83,631.9,373.03,627,370.86z"/>
		<path class="st12" d="M627,370.86l-7.37-3.28c7.53,1.81,18.58-1.72,27.17-17.37l-6.98,15.71
			C637.64,370.83,631.9,373.03,627,370.86z"/>
		<path class="st15" d="M690.9,390.41L690.9,390.41c-1.92-0.85-2.79-3.1-1.93-5.03l5.21-11.72c0.85-1.92,3.1-2.79,5.03-1.93l0,0
			c1.92,0.85,2.79,3.1,1.93,5.03l-5.21,11.72C695.07,390.4,692.82,391.26,690.9,390.41z"/>
		<path class="st15" d="M731.18,408.31L731.18,408.31c-1.92-0.85-2.79-3.1-1.93-5.03l5.21-11.72c0.85-1.92,3.1-2.79,5.03-1.93h0
			c1.92,0.85,2.79,3.1,1.93,5.03l-5.21,11.72C735.35,408.3,733.11,409.17,731.18,408.31z"/>
	</g>
	<g>
		<g id="face_2_">
			<path class="st21" d="M615.71,388.31l86.34,49.12c15.44,8.78,35.08,3.39,43.86-12.05l4.09-7.2c8.78-15.44,3.39-35.08-12.05-43.86
				l-86.34-49.12c-15.44-8.78-35.08-3.39-43.86,12.05l-4.09,7.2C594.88,359.89,600.27,379.53,615.71,388.31z"/>
			<path class="st17" d="M644.73,404.82l86.34,49.12c15.44,8.78,35.08,3.39,43.86-12.05l4.09-7.2c8.78-15.44,3.39-35.08-12.05-43.86
				l-86.34-49.12c-15.44-8.78-35.08-3.39-43.86,12.05l-4.09,7.2C623.89,376.4,629.29,396.03,644.73,404.82z"/>
			<path class="st18" d="M644.73,404.82l13.24,7.53c0,0-39.56-22.51-11.1-69.45c-4.04,2.69-7.53,6.35-10.1,10.86l-4.09,7.2
				C623.89,376.4,629.29,396.03,644.73,404.82z"/>
			<path class="st19" d="M644.95,391.57l96.8,55.07c3.95,2.25,8.98,0.87,11.23-3.09l16.2-28.47c2.25-3.95,0.87-8.98-3.09-11.23
				l-96.8-55.07c-3.95-2.25-8.98-0.87-11.23,3.09l-16.2,28.47C639.61,384.29,640.99,389.32,644.95,391.57z"/>
			<path class="st20" d="M675.03,394.11L675.03,394.11c2.29,1.3,5.19,0.5,6.49-1.78l7.65-13.44c1.3-2.29,0.5-5.19-1.78-6.49v0
				c-2.29-1.3-5.19-0.5-6.49,1.78l-7.65,13.44C671.95,389.91,672.75,392.81,675.03,394.11z"/>
			<path class="st20" d="M724.51,422.26L724.51,422.26c2.29,1.3,5.19,0.5,6.49-1.78l7.65-13.44c1.3-2.29,0.5-5.19-1.78-6.49l0,0
				c-2.29-1.3-5.19-0.5-6.49,1.78l-7.65,13.44C721.43,418.06,722.22,420.96,724.51,422.26z"/>
		</g>
		<path class="st16" d="M616.37,364.51l-5.34-2.97c-3.55-1.97-4.83-6.45-2.86-10l6.32-11.39c1.97-3.55,6.45-4.83,10-2.86l5.34,2.97
			c3.55,1.97,4.83,6.45,2.86,10l-6.32,11.39C624.4,365.2,619.92,366.48,616.37,364.51z"/>
		<g>
			
				<rect x="760.89" y="373.77" transform="matrix(-0.8692 -0.4945 0.4945 -0.8692 1238.3535 1089.0359)" class="st17" width="4.69" height="13.88"/>
			<circle class="st17" cx="769.1" cy="370.4" r="7.5"/>
			
				<rect x="692.25" y="334.73" transform="matrix(-0.8692 -0.4945 0.4945 -0.8692 1129.3776 982.1144)" class="st17" width="4.69" height="13.88"/>
			<circle class="st17" cx="700.47" cy="331.35" r="7.5"/>
		</g>
	</g>
	<g>
		<g>
			<path class="st30" d="M668.73,434.74l5.26-3.5c0.74,1.11,4.29,5.66,7.42,9.67c4.6,5.9,7.45,9.56,8.19,10.73l-5.34,3.38
				c-0.63-0.99-4.62-6.11-7.83-10.22C672.18,439.35,669.54,435.96,668.73,434.74z"/>
		</g>
		<g>
			<path class="st31" d="M668.73,434.74l4.28-2.22c0.74,1.11,4.93,5.46,8.06,9.47c4.6,5.9,7.79,8.48,8.53,9.65l-5.34,3.38
				c-0.63-0.99-4.62-6.11-7.83-10.22C672.18,439.35,669.54,435.96,668.73,434.74z"/>
		</g>
		<path class="st19" d="M705.19,467.38c1.35-0.94,4,1.32,4.64,2.79s-2.45,3.45-4.39,1.11C703.51,468.93,703.88,468.29,705.19,467.38
			z"/>
		<path class="st19" d="M703.02,475c1.04,1.51-0.01,2.27-1.2,2s-2.77-2.5-3.17-3.43s0.8-2.97,1.64-2.23
			C701.13,472.07,703.02,475,703.02,475z"/>
		<path class="st19" d="M695.65,478.02c0.1,1.57-0.98,4.04-1.94,1.77c-0.97-2.27-1.74-4.42-1.36-5.47c0.39-1.05,1.88-2.45,2.6-0.78
			C695.67,475.2,695.65,478.02,695.65,478.02z"/>
		<path class="st21" d="M688.68,448.49l-6.55,4.36c-1.55,1.03-2.05,3.06-1.16,4.65l6.38,11.34c0.99,1.77,3.31,2.3,5.02,1.15
			l8.17-5.45c1.72-1.14,2.12-3.48,0.87-5.08l-8.01-10.26C692.29,447.77,690.22,447.46,688.68,448.49z"/>
		<path class="st21" d="M655.1,487.71l-2.37-1.06c-5.39-2.41-7.79-8.74-5.38-14.12l3.92-8.74l21.87,9.81l-3.92,8.74
			C666.8,487.72,660.48,490.13,655.1,487.71z"/>
		<path class="st16" d="M655.1,487.71c-4.59-2.4-9.21-8.27-6.3-13.51l3.92-8.74l20.43,8.13l-3.92,8.74
			C666.8,487.72,660.48,490.13,655.1,487.71z"/>
		<path class="st22" d="M684.13,475.87c-5.77,12.86-14.7,8.98-27.19,3.38c-12.49-5.6-23.81-10.8-18.05-23.66
			s22.03-22.01,34.52-16.41C685.9,444.78,689.89,463.01,684.13,475.87z"/>
		<path class="st23" d="M684.13,475.87c-5.77,12.86-14.7,8.98-27.19,3.38c-5-2.24-9.81-4.42-13.42-7.05
			c-5.4-3.94,17.4-38.62,29.89-33.02C685.9,444.78,689.89,463.01,684.13,475.87z"/>
		<path class="st17" d="M689.1,471.14c-6.35,14.17-16.53,9.74-30.77,3.35s-27.15-12.31-20.79-26.47
			c6.35-14.17,24.65-24.07,38.89-17.68S695.45,456.97,689.1,471.14z"/>
		<path class="st24" d="M689.1,471.14c-6.35,14.17-16.53,9.74-30.77,3.35c-6.87-3.08-13.42-6.05-17.66-9.89
			c-4.55-4.12,21.52-40.65,35.76-34.26S695.45,456.97,689.1,471.14z"/>
		<g>
			<defs>
				<path id="SVGID_3_" d="M689.1,471.14c-6.35,14.17-16.53,9.74-30.77,3.35c-6.87-3.08-13.42-6.05-17.66-9.89
					c-4.55-4.12,21.52-40.65,35.76-34.26S695.45,456.97,689.1,471.14z"/>
			</defs>
			<clipPath id="SVGID_5_">
				<use xlink:href="#SVGID_3_"  style="overflow:visible;"/>
			</clipPath>
			<g class="st37">
				<path class="st21" d="M687.93,478.58l-27.85-10.68c-2.38-0.91-3.57-3.58-2.65-5.96l3.03-7.91c0.91-2.38,3.58-3.57,5.96-2.65
					l27.85,10.68c2.38,0.91,3.57,3.58,2.65,5.96l-3.03,7.91C692.98,478.3,690.31,479.49,687.93,478.58z"/>
				<g>
					<path class="st26" d="M687.66,477l-27.35-10.49c-2.24-0.86-3.36-3.37-2.5-5.61l2.67-6.96c0.86-2.24,3.37-3.36,5.61-2.5
						l27.35,10.49c2.24,0.86,3.36,3.37,2.5,5.61l-2.67,6.96C692.42,476.74,689.9,477.86,687.66,477z"/>
				</g>
				<path class="st27" d="M693.38,461.9l-0.12-0.05c-6.49,6.57-16.26,9.52-25.84,7.38l20.18,7.74c2.24,0.86,4.75-0.26,5.61-2.5
					l2.67-6.96C696.73,465.28,695.62,462.76,693.38,461.9z"/>
				<g>
					<path class="st17" d="M671.41,461.78c-0.21,0.55-0.54,1.02-0.97,1.41c-0.44,0.39-0.93,0.63-1.47,0.75
						c-0.54,0.11-1.07,0.07-1.6-0.13c-0.78-0.3-1.35-0.87-1.7-1.7l-0.91,2.36l1.14,0.44l-0.4,1.04l-3.34-1.28l0.4-1.04l1.05,0.4
						l2.5-6.52l-0.98-0.37l0.4-1.05l2.12,0.81l-0.36,0.95c0.42-0.24,0.84-0.37,1.25-0.41c0.41-0.04,0.82,0.02,1.21,0.17
						c0.55,0.21,0.99,0.54,1.31,0.98c0.32,0.44,0.51,0.94,0.57,1.5C671.7,460.66,671.62,461.23,671.41,461.78 M667.75,462.73
						c0.32,0.12,0.64,0.14,0.97,0.05c0.33-0.09,0.63-0.27,0.89-0.54c0.27-0.27,0.47-0.58,0.61-0.95c0.14-0.37,0.19-0.73,0.15-1.1
						c-0.04-0.37-0.16-0.7-0.37-0.99c-0.21-0.29-0.48-0.5-0.83-0.64c-0.36-0.14-0.73-0.17-1.09-0.08c-0.36,0.08-0.68,0.25-0.97,0.51
						c-0.28,0.26-0.5,0.58-0.64,0.97c-0.24,0.62-0.23,1.18,0.01,1.67C666.74,462.14,667.16,462.5,667.75,462.73"/>
					<path class="st17" d="M676.17,457.87c-0.07,0.19-0.21,0.33-0.4,0.42c-0.19,0.09-0.38,0.09-0.57,0.02
						c-0.19-0.07-0.32-0.2-0.4-0.39c-0.08-0.19-0.08-0.38-0.01-0.57c0.07-0.19,0.2-0.33,0.39-0.42c0.19-0.09,0.37-0.1,0.56-0.02
						c0.2,0.08,0.33,0.21,0.42,0.39C676.25,457.48,676.25,457.67,676.17,457.87 M674.34,465.09l-0.4,1.04L671,465l0.4-1.04
						l0.91,0.35l1.48-3.86l-0.91-0.35l0.4-1.05l2.06,0.79l-1.88,4.9L674.34,465.09z"/>
					<path class="st17" d="M682.56,466.06c-0.21,0.55-0.54,1.02-0.97,1.41c-0.44,0.39-0.93,0.64-1.47,0.75
						c-0.54,0.11-1.07,0.07-1.6-0.13c-0.78-0.3-1.35-0.87-1.69-1.7l-0.91,2.36l1.14,0.44l-0.4,1.04l-3.34-1.28l0.4-1.04l1.05,0.4
						l2.5-6.52l-0.98-0.37l0.4-1.05l2.12,0.81l-0.36,0.95c0.42-0.24,0.84-0.37,1.25-0.41c0.41-0.04,0.82,0.02,1.21,0.17
						c0.55,0.21,0.99,0.54,1.31,0.98c0.32,0.44,0.51,0.94,0.57,1.5C682.86,464.94,682.78,465.51,682.56,466.06 M678.91,467.01
						c0.32,0.12,0.64,0.14,0.97,0.05c0.33-0.09,0.63-0.27,0.89-0.54c0.27-0.27,0.47-0.58,0.61-0.95c0.14-0.37,0.19-0.73,0.15-1.1
						c-0.04-0.37-0.16-0.7-0.37-0.99c-0.21-0.29-0.48-0.5-0.83-0.64c-0.36-0.14-0.73-0.17-1.09-0.08c-0.36,0.08-0.68,0.25-0.97,0.51
						c-0.28,0.26-0.5,0.58-0.64,0.97c-0.24,0.62-0.23,1.18,0.01,1.67C677.89,466.42,678.32,466.78,678.91,467.01"/>
					<polygon class="st17" points="685.94,465.11 685.91,468.96 688.43,466.07 687.65,465.77 688.05,464.72 690.84,465.79 
						690.44,466.84 689.58,466.51 683.8,472.96 681.86,472.22 682.25,471.2 683.4,471.64 684.76,470.16 684.69,464.63 
						683.71,464.26 684.12,463.21 687.03,464.33 686.63,465.38 					"/>
				</g>
			</g>
		</g>
		
			<ellipse transform="matrix(0.8106 -0.5857 0.5857 0.8106 -133.56 466.5665)" class="st28" cx="654.42" cy="439.73" rx="6.29" ry="4.37"/>
		
			<ellipse transform="matrix(0.8106 -0.5857 0.5857 0.8106 -133.0653 465.8912)" class="st38" cx="653.62" cy="438.63" rx="4.33" ry="3.01"/>
		<g>
			<path class="st30" d="M656.73,436.57c0.51,0.84,0.01,3.01-0.72,3.57c-1.33,1.03-4.14,2.8-8.36,5.35
				c-3.78,2.29-8.49,5.13-9.28,5.72l-3.21-4.29c0.94-0.7,4.3-2.74,9.72-6.02c3.17-1.92,6.64-4.14,8.22-5.03
				C654.74,434.95,656.3,435.87,656.73,436.57z"/>
		</g>
		<g>
			<path class="st31" d="M654.54,439.91c-1.24,1.59-3.06,2.38-7.13,5.17c-3.61,2.47-8.25,5.54-9.05,6.14l-3.21-4.29
				c0.94-0.7,4.3-2.74,9.72-6.02c3.17-1.92,5.8-3.54,7.32-4.52c0.39-0.25,0.89-0.35,1.31-0.15
				C654.51,436.72,655.06,439.24,654.54,439.91z"/>
		</g>
		<path class="st19" d="M621.74,451.67c-0.79-1.15-3.56-0.16-4.52,0.81c-0.95,0.97,0.9,3.47,3.14,2.2S622.51,452.78,621.74,451.67z"
			/>
		<path class="st19" d="M621.15,458.35c-1.28,0.88-0.67,1.8,0.34,1.94c1.02,0.15,2.95-1.14,3.55-1.76s0.26-2.59-0.62-2.26
			C623.54,456.6,621.15,458.35,621.15,458.35z"/>
		<path class="st19" d="M626.08,462.97c-0.55,1.21-0.45,3.49,1,1.99c1.45-1.5,2.72-2.97,2.73-3.92s-0.74-2.51-1.82-1.41
			C626.91,460.73,626.08,462.97,626.08,462.97z"/>
		<path class="st24" d="M640.52,441.7l3.86,5.43c0.91,1.28,0.7,3.04-0.49,4.03l-8.48,7.05c-1.32,1.1-3.31,0.82-4.32-0.61l-4.83-6.78
			c-1.01-1.43-0.62-3.4,0.85-4.28l9.44-5.7C637.88,440.04,639.61,440.41,640.52,441.7z"/>
		<path class="st17" d="M630.81,457.22l-4.55-6.39c-1.01-1.43-0.62-3.4,0.85-4.28l9.44-5.7
			C632.66,444.29,626.5,449.63,630.81,457.22z"/>
	</g>
</g>
<g id="图层_4">
	<path class="st39" d="M290.28,580.95l64.98-22.18c13.31-4.55,20.42-19.02,15.88-32.34l-3.59-9.71
		c-4.85-14.21-20.31-21.8-34.52-16.95l-63.36,21.63L290.28,580.95z"/>
	<g class="st0">
		<circle class="st9" cx="280.41" cy="504.5" r="8.56"/>
		<line class="st10" x1="280.41" y1="504.5" x2="288.65" y2="528.63"/>
		<circle class="st9" cx="238.22" cy="518.64" r="7.31"/>
		<line class="st11" x1="238.22" y1="518.64" x2="245.68" y2="539.08"/>
		<path class="st33" d="M291.22,617.43l87.56-29.89c17.94-6.12,27.52-25.63,21.39-43.57l-6.02-17.62
			c-6.54-19.15-27.36-29.37-46.51-22.84l-85.37,29.14L291.22,617.43z"/>
		<path class="st9" d="M269.62,624.81l50.7-17.31c19.15-6.54,29.37-27.36,22.84-46.51l-5.27-15.43
			c-6.54-19.15-27.36-29.37-46.51-22.84l-50.7,17.31c-19.15,6.54-29.37,27.36-22.84,46.51l5.27,15.43
			C229.64,621.12,250.47,631.35,269.62,624.81z"/>
		<path class="st13" d="M265.51,605.41l46.19-15.77c10.37-3.54,15.91-14.82,12.37-25.19l-2.53-7.41
			c-3.54-10.37-14.82-15.91-25.19-12.37l-46.19,15.77c-10.37,3.54-15.91,14.82-12.37,25.19l2.53,7.41
			C243.86,603.41,255.14,608.95,265.51,605.41z"/>
		<path class="st34" d="M368.68,562.74l7.17-2.45c4.77-1.63,7.31-6.81,5.68-11.58l-5.22-15.29c-1.63-4.77-6.81-7.31-11.58-5.68
			l-7.17,2.45c-4.77,1.63-7.31,6.81-5.68,11.58l5.22,15.29C358.73,561.82,363.91,564.37,368.68,562.74z"/>
		<path class="st15" d="M303.19,577.35L303.19,577.35c1.87-0.64,2.87-2.67,2.23-4.54l-3.89-11.4c-0.64-1.87-2.67-2.87-4.54-2.23l0,0
			c-1.87,0.64-2.87,2.67-2.23,4.54l3.89,11.4C299.29,576.99,301.32,577.99,303.19,577.35z"/>
		<path class="st15" d="M264.01,590.73L264.01,590.73c1.87-0.64,2.87-2.67,2.23-4.54l-3.89-11.4c-0.64-1.87-2.67-2.87-4.54-2.23l0,0
			c-1.87,0.64-2.87,2.67-2.23,4.54l3.89,11.4C260.11,590.37,262.14,591.37,264.01,590.73z"/>
	</g>
	<g>
		<g>
			<path class="st30" d="M306.25,628.01l0.02-4.92c-1.04,0-5.52-0.36-9.47-0.67c-5.8-0.46-9.41-0.73-10.48-0.71l0.1,4.92
				c0.91-0.02,5.95,0.38,10,0.7C301.77,627.75,305.1,628.01,306.25,628.01z"/>
		</g>
		<g>
			<path class="st31" d="M306.25,628.01l-0.4-3.73c-1.04,0-5.66-0.86-9.61-1.17c-5.8-0.46-8.85-1.42-9.93-1.4l0.1,4.92
				c0.91-0.02,5.95,0.38,10,0.7C301.77,627.75,305.1,628.01,306.25,628.01z"/>
		</g>
		<path class="st19" d="M265.38,623.02c-1.43-0.03-1.47,0.98-0.78,1.63c0.68,0.65,2.81,0.73,3.59,0.59c0.78-0.14,1.58-1.8,0.75-2.02
			C268.09,622.99,265.38,623.02,265.38,623.02z"/>
		<path class="st19" d="M267.36,617.08c-1.23-0.73-1.76,0.12-1.49,1.03c0.27,0.91,2.08,2.03,2.83,2.29s2.27-0.77,1.65-1.39
			C269.73,618.4,267.36,617.08,267.36,617.08z"/>
		<path class="st19" d="M266.58,629.1c-1.06,0.61-2.21,2.37-0.32,2.02c1.89-0.34,3.62-0.76,4.14-1.47c0.52-0.7,0.79-2.27-0.61-2.03
			C268.4,627.87,266.58,629.1,266.58,629.1z"/>
		<path class="st17" d="M288.75,620.96l-0.02,6.12c-0.01,1.45-1.11,2.65-2.52,2.75l-10.11,0.72c-1.57,0.11-2.91-1.16-2.9-2.77
			l0.03-7.65c0.01-1.61,1.35-2.87,2.93-2.74l10.1,0.8C287.67,618.3,288.76,619.51,288.75,620.96z"/>
		<path class="st21" d="M288.82,621.39l-0.09,5.69c-0.01,1.45-1.11,2.65-2.52,2.75l-9.49,0.55c-1.57,0.11-2.91-1.16-2.9-2.77
			l0.32-6.86c0.01-1.61,1.35-2.87,2.93-2.74l9.26,0.62C287.73,618.73,288.82,619.94,288.82,621.39z"/>
		<path class="st21" d="M329.32,651.88l1.84-0.83c4.19-1.88,6.07-6.8,4.19-10.99l-3.05-6.81l-17.02,7.63l3.05,6.81
			C320.2,651.88,325.13,653.76,329.32,651.88z"/>
		<path class="st16" d="M329.32,651.88l1.84-0.83c4.19-1.88,6.07-6.8,4.19-10.99l-3.05-6.81l-17.02,7.63l4.69,6.34
			C321.84,651.41,325.13,653.76,329.32,651.88z"/>
		<path class="st22" d="M306.72,642.66c4.49,10.01,11.44,6.99,21.17,2.63c9.72-4.36,18.54-8.41,14.05-18.42
			c-4.49-10.01-17.15-17.13-26.87-12.77S302.23,632.65,306.72,642.66z"/>
		<path class="st23" d="M310.44,641.84c4.49,10.01,7.72,7.81,17.45,3.45c9.72-4.36,18.54-8.41,14.05-18.42
			c-4.49-10.01-17.15-17.13-26.87-12.77S305.95,631.83,310.44,641.84z"/>
		<path class="st17" d="M302.85,638.98c4.94,11.03,12.87,7.58,23.95,2.61c11.08-4.97,21.13-9.58,16.19-20.61
			c-4.94-11.03-19.19-18.73-30.28-13.76C301.63,612.19,297.9,627.95,302.85,638.98z"/>
		<path class="st24" d="M314.05,646.15c3.69-0.05,7.9-2.39,12.75-4.56c11.08-4.97,21.13-9.58,16.19-20.61
			c-4.94-11.03-19.19-18.73-30.28-13.76C301.63,612.19,303.54,646.28,314.05,646.15z"/>
		<g>
			<defs>
				<path id="SVGID_1_" d="M302.85,638.98c4.94,11.03,12.87,7.58,23.95,2.61c5.35-2.4,10.45-4.71,13.75-7.7
					c3.54-3.21-16.75-31.64-27.84-26.67C301.63,612.19,297.9,627.95,302.85,638.98z"/>
			</defs>
			<clipPath id="SVGID_6_">
				<use xlink:href="#SVGID_1_"  style="overflow:visible;"/>
			</clipPath>
			<g class="st40">
				<path class="st21" d="M324.63,640.49l-24.11,9.33c-2.06,0.8-4.37-0.23-5.17-2.28l-2.65-6.85c-0.8-2.06,0.23-4.37,2.28-5.17
					l24.11-9.33c2.06-0.8,4.37,0.23,5.17,2.28l2.65,6.85C327.71,637.37,326.69,639.69,324.63,640.49z"/>
				<g>
					<path class="st26" d="M323.54,639.63l-23.67,9.16c-1.94,0.75-4.12-0.21-4.87-2.15l-2.33-6.03c-0.75-1.94,0.21-4.12,2.15-4.87
						l23.67-9.16c1.94-0.75,4.12,0.21,4.87,2.15l2.33,6.03C326.44,636.7,325.48,638.88,323.54,639.63z"/>
				</g>
				<path class="st27" d="M318.43,626.61l-0.11,0.04c-0.35,8-4.91,15.57-12.31,19.77l17.47-6.76c1.94-0.75,2.9-2.93,2.15-4.87
					l-2.33-6.03C322.55,626.82,320.37,625.85,318.43,626.61z"/>
				<g>
					<path class="st17" d="M304.24,639.31c0.19,0.48,0.25,0.97,0.19,1.47c-0.06,0.5-0.23,0.95-0.51,1.33
						c-0.28,0.39-0.65,0.67-1.11,0.85c-0.68,0.26-1.37,0.23-2.08-0.11l0.79,2.05l0.98-0.38l0.35,0.9l-2.89,1.12l-0.35-0.9l0.91-0.35
						l-2.19-5.64l-0.85,0.33l-0.35-0.91l1.84-0.71l0.32,0.82c0.13-0.4,0.32-0.73,0.57-0.99c0.24-0.26,0.54-0.46,0.88-0.59
						c0.48-0.18,0.95-0.23,1.41-0.13c0.46,0.09,0.88,0.31,1.24,0.63C303.78,638.42,304.05,638.82,304.24,639.31 M302.45,642.04
						c0.28-0.11,0.49-0.28,0.65-0.53c0.16-0.25,0.24-0.54,0.26-0.87c0.02-0.33-0.04-0.65-0.16-0.96c-0.12-0.32-0.3-0.58-0.54-0.79
						c-0.24-0.21-0.51-0.35-0.81-0.42c-0.3-0.07-0.6-0.04-0.9,0.07c-0.31,0.12-0.56,0.32-0.75,0.58c-0.19,0.26-0.29,0.56-0.32,0.89
						c-0.03,0.33,0.02,0.66,0.15,1c0.21,0.54,0.53,0.89,0.98,1.07C301.45,642.25,301.93,642.24,302.45,642.04"/>
					<path class="st17" d="M305.03,634.02c0.06,0.17,0.06,0.33-0.01,0.5c-0.07,0.17-0.19,0.28-0.35,0.34
						c-0.16,0.06-0.33,0.06-0.49-0.02c-0.16-0.08-0.27-0.2-0.34-0.36s-0.06-0.33,0.01-0.5c0.07-0.17,0.18-0.28,0.35-0.34
						c0.17-0.07,0.33-0.06,0.5,0.01C304.85,633.72,304.96,633.85,305.03,634.02 M308.05,639.72l0.35,0.9l-2.55,0.99l-0.35-0.9
						l0.79-0.3l-1.29-3.34l-0.79,0.3l-0.35-0.91l1.78-0.69l1.64,4.24L308.05,639.72z"/>
					<path class="st17" d="M313.9,635.57c0.19,0.48,0.25,0.97,0.19,1.47c-0.06,0.5-0.23,0.95-0.51,1.33
						c-0.28,0.39-0.65,0.67-1.11,0.85c-0.68,0.26-1.37,0.23-2.08-0.11l0.79,2.05l0.98-0.38l0.35,0.9l-2.89,1.12l-0.35-0.9l0.91-0.35
						l-2.19-5.64l-0.85,0.33l-0.35-0.91l1.84-0.71l0.32,0.82c0.13-0.4,0.32-0.73,0.57-0.99c0.24-0.26,0.54-0.46,0.88-0.59
						c0.48-0.18,0.95-0.23,1.41-0.13c0.46,0.09,0.88,0.31,1.24,0.63C313.44,634.68,313.71,635.08,313.9,635.57 M312.1,638.3
						c0.28-0.11,0.49-0.28,0.65-0.53c0.16-0.25,0.24-0.54,0.26-0.87c0.02-0.33-0.04-0.65-0.16-0.96c-0.12-0.32-0.3-0.58-0.54-0.79
						c-0.24-0.21-0.51-0.35-0.81-0.42c-0.3-0.07-0.6-0.04-0.9,0.07c-0.31,0.12-0.56,0.32-0.75,0.58c-0.19,0.26-0.29,0.56-0.32,0.89
						c-0.03,0.33,0.02,0.66,0.15,1c0.21,0.54,0.53,0.89,0.98,1.07C311.11,638.51,311.59,638.5,312.1,638.3"/>
					<polygon class="st17" points="315.52,632.99 317.74,635.48 317.67,632.16 317,632.42 316.65,631.51 319.06,630.58 
						319.41,631.49 318.67,631.77 318.71,639.28 317.03,639.93 316.69,639.05 317.68,638.67 317.69,636.92 314.44,633.41 
						313.59,633.74 313.24,632.83 315.77,631.85 316.12,632.76 					"/>
				</g>
			</g>
		</g>
		
			<ellipse transform="matrix(0.5857 -0.8106 0.8106 0.5857 -361.4451 521.9872)" class="st28" cx="329.84" cy="614.53" rx="3.4" ry="4.89"/>
		
			<ellipse transform="matrix(0.5857 -0.8106 0.8106 0.5857 -360.4926 522.1342)" class="st41" cx="330.46" cy="613.67" rx="2.34" ry="3.37"/>
		<g>
			<path class="st30" d="M328.54,613.06c-0.22,0.82,0.73,2.51,1.48,2.8c1.36,0.53,4.15,1.31,8.29,2.4c3.72,0.97,8.34,2.18,9.15,2.48
				l1.62-4.36c-0.96-0.35-4.26-1.23-9.59-2.62c-3.11-0.82-6.56-1.81-8.1-2.17C329.79,611.22,328.72,612.37,328.54,613.06z"/>
		</g>
		<g>
			<path class="st31" d="M331.18,615.31c1.43,1.02,3.14,1.23,7.22,2.55c3.62,1.17,8.25,2.58,9.06,2.88l1.62-4.36
				c-0.96-0.35-4.26-1.23-9.59-2.62c-3.11-0.82-5.71-1.52-7.22-1.96c-0.39-0.11-0.83-0.07-1.13,0.2
				C330.43,612.64,330.59,614.88,331.18,615.31z"/>
		</g>
		<path class="st19" d="M361.44,617.02c0.37-1.15,2.93-1.01,3.96-0.44c1.03,0.57,0.11,3.12-2.08,2.61S361.07,618.14,361.44,617.02z"
			/>
		<path class="st19" d="M363.57,622.45c1.28,0.42,1.01,1.33,0.19,1.7c-0.81,0.37-2.74-0.22-3.39-0.59c-0.65-0.37-0.86-2.1-0.04-2.04
			S363.57,622.45,363.57,622.45z"/>
		<path class="st19" d="M360.6,627.51c0.76,0.88,1.24,2.8-0.35,1.91s-3-1.81-3.24-2.6s0-2.28,1.17-1.62S360.6,627.51,360.6,627.51z"
			/>
		<path class="st17" d="M343.32,613.34l-1.88,5.48c-0.44,1.3,0.17,2.71,1.4,3.24l8.81,3.79c1.37,0.59,2.96-0.13,3.46-1.57l2.35-6.84
			c0.49-1.44-0.32-2.99-1.76-3.36l-9.28-2.42C345.11,611.31,343.76,612.04,343.32,613.34z"/>
		<path class="st24" d="M348.2,624.37l3.45,1.48c1.37,0.59,2.96-0.13,3.46-1.57l2.25-6.55C356.47,618.76,353.52,625.54,348.2,624.37
			z"/>
	</g>
	<g>
		<g id="face">
			<path class="st21" d="M381.5,573.3l-96.29,32.86c-17.22,5.88-35.94-3.32-41.82-20.54l-2.74-8.03
				c-5.88-17.22,3.32-35.94,20.54-41.82l96.29-32.86c17.22-5.88,35.94,3.32,41.82,20.54l2.74,8.03
				C407.91,548.7,398.72,567.43,381.5,573.3z"/>
			<path class="st17" d="M349.14,584.35l-96.29,32.86c-17.22,5.88-35.94-3.32-41.82-20.54l-2.74-8.03
				c-5.88-17.22,3.32-35.94,20.54-41.82l96.29-32.86c17.22-5.88,35.94,3.32,41.82,20.54l2.74,8.03
				C375.55,559.75,366.36,578.47,349.14,584.35z"/>
			<path class="st18" d="M349.14,584.35l-14.76,5.04c0,0,44.12-15.06,24.48-67.74c3.55,3.48,6.36,7.83,8.08,12.86l2.74,8.03
				C375.55,559.75,366.36,578.47,349.14,584.35z"/>
			<path class="st19" d="M351.46,570.98l-107.95,36.84c-4.41,1.5-9.2-0.85-10.71-5.26l-10.83-31.75c-1.5-4.41,0.85-9.2,5.26-10.71
				l107.95-36.84c4.41-1.5,9.2,0.85,10.71,5.26l10.83,31.75C358.22,564.68,355.87,569.47,351.46,570.98z"/>
			<path class="st20" d="M320.71,567.77L320.71,567.77c-2.55,0.87-5.32-0.49-6.19-3.04l-5.12-14.99c-0.87-2.55,0.49-5.32,3.04-6.19
				h0c2.55-0.87,5.32,0.49,6.19,3.04l5.12,14.99C324.61,564.12,323.25,566.9,320.71,567.77z"/>
			<path class="st20" d="M265.53,586.6L265.53,586.6c-2.55,0.87-5.32-0.49-6.19-3.04l-5.12-14.99c-0.87-2.55,0.49-5.32,3.04-6.19h0
				c2.55-0.87,5.32,0.49,6.19,3.04l5.12,14.99C269.44,582.95,268.08,585.73,265.53,586.6z"/>
		</g>
		<path class="st16" d="M385.4,549.23l5.95-1.96c3.95-1.3,6.1-5.56,4.8-9.51l-4.18-12.67c-1.3-3.95-5.56-6.1-9.51-4.8l-5.95,1.96
			c-3.95,1.3-6.1,5.56-4.8,9.51l4.18,12.67C377.19,548.38,381.45,550.53,385.4,549.23z"/>
		<g>
			
				<rect x="232.14" y="530.26" transform="matrix(0.9464 -0.323 0.323 0.9464 -160.9917 104.5548)" class="st17" width="4.8" height="14.21"/>
			<circle class="st17" cx="230.62" cy="525.87" r="7.68"/>
			
				<rect x="308.68" y="504.14" transform="matrix(0.9464 -0.323 0.323 0.9464 -148.4533 127.8748)" class="st17" width="4.8" height="14.21"/>
			<circle class="st17" cx="307.15" cy="499.75" r="7.68"/>
		</g>
	</g>
</g>
<g id="图层_8">
	<g>
		<g>
			<g>
				<path class="st19" d="M504.9,247.69l-0.46-1.96c-0.42,0.1-2.23,0.38-3.84,0.64c-2.36,0.37-3.82,0.6-4.25,0.71l0.51,1.95
					c0.36-0.09,2.41-0.42,4.05-0.67C503.09,248.01,504.45,247.8,504.9,247.69z"/>
			</g>
		</g>
		<g>
			<path class="st19" d="M488.14,249.59c-0.57,0.13-0.49,0.53-0.16,0.73c0.33,0.2,1.19,0.02,1.49-0.11s0.46-0.87,0.1-0.88
				C489.22,249.32,488.14,249.59,488.14,249.59z"/>
		</g>
		<g>
			<path class="st19" d="M488.37,247.04c-0.56-0.17-0.69,0.22-0.5,0.55s1.02,0.61,1.34,0.64c0.32,0.04,0.83-0.52,0.53-0.71
				C489.44,247.34,488.37,247.04,488.37,247.04z"/>
		</g>
		<g>
			<path class="st19" d="M489.2,251.9c-0.37,0.34-0.65,1.15,0.07,0.84c0.72-0.32,1.37-0.65,1.51-0.98c0.14-0.33,0.1-0.98-0.43-0.75
				C489.81,251.24,489.2,251.9,489.2,251.9z"/>
		</g>
		<g>
			<path class="st19" d="M497.26,246.54l0.57,2.44c0.14,0.58-0.19,1.16-0.74,1.33l-3.96,1.25c-0.62,0.19-1.27-0.19-1.42-0.83
				l-0.72-3.05c-0.15-0.64,0.27-1.27,0.9-1.37l4.1-0.64C496.58,245.59,497.13,245.97,497.26,246.54z"/>
		</g>
	</g>
	<g>
		<g>
			<path class="st19" d="M509.78,260.45l0.79-0.13c1.81-0.31,3.03-2.02,2.72-3.83l-0.5-2.94l-7.34,1.24l0.5,2.94
				C506.26,259.54,507.97,260.76,509.78,260.45z"/>
		</g>
		<g>
			<path class="st19" d="M501.98,254.62c0.73,4.32,3.72,3.85,7.91,3.14c4.19-0.71,8-1.39,7.27-5.7c-0.73-4.32-4.9-8.34-9.1-7.63
				C503.87,245.14,501.25,250.31,501.98,254.62z"/>
		</g>
		<g>
			<path class="st19" d="M500.85,252.81c0.8,4.76,4.21,4.22,8.99,3.41c4.78-0.81,9.12-1.58,8.32-6.33s-5.53-9.16-10.31-8.36
				S500.05,248.06,500.85,252.81z"/>
		</g>
	</g>
	<g>
		<g>
			<g>
				<path class="st19" d="M511.51,245.34c0.1,0.37,0.85,0.8,1.2,0.74c0.64-0.11,1.89-0.44,3.73-0.96c1.65-0.47,3.69-1.05,4.07-1.12
					l-0.37-2.04c-0.45,0.08-1.91,0.49-4.27,1.17c-1.38,0.39-2.93,0.79-3.6,1C511.58,244.35,511.42,245.03,511.51,245.34z"/>
			</g>
		</g>
		<g>
			<path class="st19" d="M525.03,239.4c-0.12-0.53,0.89-1.05,1.42-1.07c0.53-0.01,0.75,1.17-0.2,1.47
				C525.29,240.11,525.14,239.92,525.03,239.4z"/>
		</g>
		<g>
			<path class="st19" d="M527.08,241c0.59-0.13,0.69,0.28,0.46,0.61s-1.1,0.53-1.44,0.54c-0.33,0.01-0.8-0.61-0.48-0.77
				C525.95,241.22,527.08,241,527.08,241z"/>
		</g>
		<g>
			<path class="st19" d="M527.09,243.62c0.49,0.16,1.11,0.8,0.3,0.81c-0.81,0.01-1.56-0.01-1.83-0.26
				c-0.27-0.25-0.52-0.87,0.08-0.89C526.23,243.26,527.09,243.62,527.09,243.62z"/>
		</g>
		<g>
			<path class="st19" d="M517.24,242.1l0.52,2.53c0.12,0.6,0.68,1,1.27,0.93l4.24-0.54c0.66-0.08,1.11-0.72,0.97-1.39l-0.65-3.16
				c-0.14-0.66-0.8-1.07-1.44-0.89l-4.11,1.17C517.47,240.91,517.12,241.5,517.24,242.1z"/>
		</g>
	</g>
	<g>
		<g>
			<g>
				<g>
					<path class="st19" d="M584.7,655.87l-1.17-0.79c-0.17,0.25-0.97,1.26-1.67,2.15c-1.04,1.31-1.68,2.12-1.84,2.38l1.19,0.76
						c0.14-0.22,1.04-1.35,1.76-2.27C583.93,656.89,584.52,656.14,584.7,655.87z"/>
				</g>
			</g>
			<g>
				<path class="st19" d="M576.98,664.79c-0.23,0.34,0,0.51,0.26,0.45c0.26-0.06,0.62-0.55,0.71-0.76s-0.17-0.66-0.36-0.5
					C577.41,664.14,576.98,664.79,576.98,664.79z"/>
			</g>
			<g>
				<path class="st19" d="M575.89,663.37c-0.37,0.17-0.25,0.44,0.01,0.52s0.81-0.17,1-0.31c0.18-0.13,0.18-0.66-0.07-0.61
					C576.58,663.02,575.89,663.37,575.89,663.37z"/>
			</g>
			<g>
				<path class="st19" d="M578.62,665.48c-0.03,0.35,0.21,0.9,0.43,0.4c0.22-0.5,0.4-0.98,0.31-1.22c-0.08-0.24-0.41-0.55-0.58-0.18
					C578.62,664.85,578.62,665.48,578.62,665.48z"/>
			</g>
			<g>
				<path class="st19" d="M580.23,658.9l1.45,0.98c0.34,0.23,0.45,0.69,0.25,1.04l-1.44,2.52c-0.22,0.39-0.74,0.51-1.12,0.25
					l-1.81-1.23c-0.38-0.26-0.47-0.78-0.19-1.13l1.8-2.27C579.43,658.74,579.89,658.67,580.23,658.9z"/>
			</g>
		</g>
		<g>
			<g>
				<path class="st19" d="M593.71,660.97l0.28-0.49c0.63-1.12,0.24-2.53-0.87-3.17l-1.81-1.03l-2.57,4.53l1.81,1.03
					C591.66,662.48,593.08,662.08,593.71,660.97z"/>
			</g>
			<g>
				<path class="st19" d="M587.1,662.63c2.66,1.51,3.73-0.32,5.2-2.91s2.78-4.95,0.12-6.46s-6.69-1.02-8.16,1.57
					S584.44,661.12,587.1,662.63z"/>
			</g>
			<g>
				<path class="st19" d="M585.62,662.44c2.93,1.66,4.15-0.42,5.82-3.37c1.67-2.95,3.17-5.65,0.24-7.31
					c-2.93-1.66-7.41-1.04-9.09,1.91C580.92,656.61,582.69,660.78,585.62,662.44z"/>
			</g>
		</g>
		<g>
			<g>
				<g>
					<path class="st19" d="M589.3,651.87c-0.06,0.26,0.25,0.78,0.48,0.86c0.43,0.15,1.3,0.37,2.6,0.68c1.17,0.27,2.62,0.61,2.87,0.7
						l0.47-1.37c-0.3-0.1-1.34-0.35-3.01-0.74c-0.98-0.23-2.06-0.51-2.54-0.61C589.68,651.28,589.35,651.65,589.3,651.87z"/>
				</g>
			</g>
			<g>
				<path class="st19" d="M599.58,652.83c0.11-0.36,0.9-0.34,1.23-0.17c0.33,0.17,0.06,0.97-0.63,0.83
					C599.5,653.35,599.48,653.18,599.58,652.83z"/>
			</g>
			<g>
				<path class="st19" d="M600.29,654.51c0.4,0.12,0.32,0.41,0.07,0.53s-0.85-0.05-1.06-0.16c-0.21-0.11-0.28-0.65-0.03-0.64
					S600.29,654.51,600.29,654.51z"/>
			</g>
			<g>
				<path class="st19" d="M599.41,656.11c0.24,0.27,0.41,0.86-0.09,0.6c-0.5-0.27-0.95-0.54-1.03-0.78
					c-0.08-0.24-0.02-0.71,0.35-0.52C599.01,655.6,599.41,656.11,599.41,656.11z"/>
			</g>
			<g>
				<path class="st19" d="M593.91,651.83l-0.54,1.72c-0.13,0.41,0.07,0.84,0.46,1l2.78,1.11c0.43,0.17,0.92-0.07,1.06-0.52
					l0.68-2.15c0.14-0.45-0.12-0.93-0.58-1.03l-2.91-0.68C594.45,651.19,594.04,651.43,593.91,651.83z"/>
			</g>
		</g>
	</g>
	<g>
		<g>
			<g>
				<path class="st19" d="M466.6,447.88l0.83-0.58c-0.12-0.18-0.6-0.97-1.01-1.68c-0.61-1.04-0.99-1.68-1.13-1.86l-0.82,0.6
					c0.11,0.15,0.64,1.05,1.07,1.77C466.11,447.09,466.46,447.69,466.6,447.88z"/>
			</g>
		</g>
		<g>
			<path class="st19" d="M462.58,440.38c-0.17-0.24-0.34-0.13-0.37,0.06s0.21,0.56,0.33,0.68c0.12,0.12,0.49,0.05,0.43-0.11
				C462.91,440.84,462.58,440.38,462.58,440.38z"/>
		</g>
		<g>
			<path class="st19" d="M463.82,440.01c-0.02-0.29-0.23-0.28-0.35-0.13c-0.12,0.15-0.1,0.59-0.05,0.75
				c0.04,0.16,0.4,0.29,0.43,0.11C463.88,440.57,463.82,440.01,463.82,440.01z"/>
		</g>
		<g>
			<path class="st19" d="M461.7,441.31c-0.23-0.11-0.66-0.09-0.38,0.19c0.28,0.28,0.56,0.52,0.74,0.52s0.48-0.14,0.27-0.34
				C462.12,441.47,461.7,441.31,461.7,441.31z"/>
		</g>
		<g>
			<path class="st19" d="M465.71,444.09l-1.04,0.72c-0.25,0.17-0.58,0.13-0.76-0.1l-1.32-1.62c-0.21-0.25-0.15-0.63,0.12-0.82
				l1.3-0.9c0.27-0.19,0.65-0.11,0.81,0.17l1.06,1.8C466.03,443.59,465.95,443.92,465.71,444.09z"/>
		</g>
	</g>
	<g>
		<g>
			<path class="st19" d="M460.84,452.63l0.26,0.31c0.59,0.71,1.64,0.82,2.36,0.23l1.16-0.95l-2.39-2.9l-1.16,0.95
				C460.35,450.86,460.25,451.91,460.84,452.63z"/>
		</g>
		<g>
			<path class="st19" d="M461.43,447.75c-1.7,1.4-0.75,2.59,0.61,4.25c1.36,1.66,2.62,3.15,4.32,1.75c1.7-1.4,2.41-4.24,1.05-5.89
				C466.05,446.2,463.13,446.35,461.43,447.75z"/>
		</g>
		<g>
			<path class="st19" d="M461.94,446.8c-1.88,1.55-0.79,2.9,0.77,4.79c1.55,1.89,2.98,3.59,4.86,2.05c1.88-1.55,2.62-4.72,1.06-6.61
				S463.81,445.26,461.94,446.8z"/>
		</g>
	</g>
	<g>
		<g>
			<g>
				<path class="st19" d="M468.1,452.01c-0.16-0.11-0.59-0.03-0.7,0.1c-0.21,0.25-0.59,0.78-1.13,1.58
					c-0.48,0.71-1.09,1.6-1.21,1.75l0.8,0.67c0.15-0.18,0.58-0.81,1.27-1.83c0.41-0.6,0.88-1.25,1.07-1.55
					C468.4,452.41,468.23,452.1,468.1,452.01z"/>
			</g>
		</g>
		<g>
			<path class="st19" d="M464.8,458.68c0.22,0.17,0,0.7-0.2,0.87c-0.2,0.18-0.67-0.21-0.4-0.64
				C464.47,458.49,464.59,458.52,464.8,458.68z"/>
		</g>
		<g>
			<path class="st19" d="M463.49,458.72c-0.19,0.24-0.36,0.11-0.38-0.09s0.25-0.56,0.38-0.67c0.13-0.11,0.51-0.02,0.44,0.14
				S463.49,458.72,463.49,458.72z"/>
		</g>
		<g>
			<path class="st19" d="M462.64,457.72c-0.24,0.1-0.69,0.05-0.38-0.22c0.31-0.27,0.61-0.5,0.79-0.49s0.48,0.17,0.26,0.37
				C463.08,457.58,462.64,457.72,462.64,457.72z"/>
		</g>
		<g>
			<path class="st19" d="M466.94,455.12l-1.02-0.81c-0.24-0.19-0.59-0.17-0.79,0.05l-1.46,1.58c-0.23,0.25-0.19,0.64,0.07,0.85
				l1.27,1.01c0.27,0.21,0.66,0.16,0.84-0.12l1.21-1.78C467.23,455.65,467.18,455.31,466.94,455.12z"/>
		</g>
	</g>
	<g>
		<g>
			<g>
				<g>
					<path class="st19" d="M146.82,472.94l-0.36-1.54c-0.33,0.08-1.76,0.29-3.02,0.49c-1.85,0.28-3,0.46-3.34,0.55l0.39,1.53
						c0.28-0.07,1.89-0.32,3.19-0.52C145.39,473.19,146.46,473.02,146.82,472.94z"/>
				</g>
			</g>
			<g>
				<path class="st19" d="M133.63,474.38c-0.45,0.1-0.39,0.42-0.13,0.57c0.26,0.16,0.93,0.02,1.17-0.08
					c0.23-0.1,0.36-0.68,0.09-0.69C134.48,474.17,133.63,474.38,133.63,474.38z"/>
			</g>
			<g>
				<path class="st19" d="M133.82,472.37c-0.44-0.14-0.54,0.17-0.39,0.43c0.15,0.26,0.8,0.48,1.05,0.51
					c0.25,0.03,0.65-0.41,0.42-0.56C134.66,472.61,133.82,472.37,133.82,472.37z"/>
			</g>
			<g>
				<path class="st19" d="M134.46,476.2c-0.29,0.27-0.52,0.9,0.05,0.66s1.08-0.5,1.19-0.76c0.11-0.26,0.08-0.77-0.34-0.59
					C134.94,475.68,134.46,476.2,134.46,476.2z"/>
			</g>
			<g>
				<path class="st19" d="M140.81,472.02l0.44,1.92c0.1,0.45-0.15,0.91-0.59,1.05l-3.12,0.97c-0.49,0.15-1-0.15-1.11-0.65l-0.55-2.4
					c-0.12-0.5,0.21-1,0.72-1.08l3.23-0.49C140.28,471.26,140.71,471.56,140.81,472.02z"/>
			</g>
		</g>
		<g>
			<g>
				<path class="st19" d="M153.18,482.4l0.55-0.31c1.25-0.72,1.68-2.31,0.97-3.56l-1.16-2.03l-5.08,2.91l1.16,2.03
					C150.33,482.69,151.93,483.12,153.18,482.4z"/>
			</g>
			<g>
				<path class="st19" d="M145.84,480.22c1.71,2.99,3.79,1.83,6.69,0.17c2.9-1.66,5.53-3.2,3.82-6.18s-5.88-4.82-8.79-3.16
					C144.66,472.71,144.13,477.24,145.84,480.22z"/>
			</g>
			<g>
				<path class="st19" d="M144.52,479.19c1.88,3.29,4.25,1.97,7.56,0.07s6.3-3.64,4.42-6.93c-1.88-3.29-6.57-5.26-9.88-3.36
					C143.31,470.87,142.63,475.9,144.52,479.19z"/>
			</g>
		</g>
		<g>
			<g>
				<g>
					<path class="st19" d="M147.32,472.59c-0.23-0.19-0.9-0.16-1.11,0.03c-0.38,0.35-1.05,1.1-2.03,2.24
						c-0.88,1.02-1.97,2.29-2.19,2.5l1.12,1.18c0.26-0.25,1.04-1.15,2.3-2.61c0.74-0.85,1.58-1.79,1.93-2.21
						C147.71,473.27,147.51,472.75,147.32,472.59z"/>
				</g>
			</g>
			<g>
				<path class="st19" d="M141.01,482.33c0.31,0.3-0.13,1.08-0.47,1.32c-0.34,0.24-1-0.45-0.5-1.05
					C140.54,481.99,140.72,482.05,141.01,482.33z"/>
			</g>
			<g>
				<path class="st19" d="M138.98,482.17c-0.33,0.34-0.57,0.11-0.57-0.2c0.01-0.31,0.49-0.83,0.71-0.98
					c0.22-0.15,0.79,0.05,0.65,0.3C139.62,481.55,138.98,482.17,138.98,482.17z"/>
			</g>
			<g>
				<path class="st19" d="M137.84,480.46c-0.39,0.11-1.07-0.04-0.55-0.4c0.53-0.36,1.03-0.67,1.32-0.62
					c0.29,0.04,0.72,0.35,0.33,0.62C138.55,480.32,137.84,480.46,137.84,480.46z"/>
			</g>
			<g>
				<path class="st19" d="M144.96,477.2l-1.44-1.44c-0.34-0.34-0.88-0.36-1.24-0.06l-2.55,2.19c-0.4,0.34-0.41,0.95-0.04,1.33
					l1.79,1.79c0.38,0.38,0.99,0.36,1.33-0.04l2.19-2.55C145.32,478.08,145.3,477.54,144.96,477.2z"/>
			</g>
		</g>
	</g>
	<g>
		<g id="face_3_">
			<path class="st42" d="M567.16,659.15l22.98-13.82c4.11-2.47,5.44-7.81,2.97-11.92l-1.15-1.92c-2.47-4.11-7.81-5.44-11.92-2.97
				l-22.98,13.82c-4.11,2.47-5.44,7.81-2.97,11.92l1.15,1.92C557.72,660.3,563.05,661.62,567.16,659.15z"/>
			<path class="st19" d="M574.88,654.51l22.98-13.82c4.11-2.47,5.44-7.81,2.97-11.92l-1.15-1.92c-2.47-4.11-7.81-5.44-11.92-2.97
				l-22.98,13.82c-4.11,2.47-5.44,7.81-2.97,11.92l1.15,1.92C565.44,655.65,570.77,656.98,574.88,654.51z"/>
			<path class="st19" d="M574.88,654.51l3.52-2.12c0,0-10.53,6.33-17.81-6.57c0.1,1.31,0.5,2.61,1.22,3.81l1.15,1.92
				C565.44,655.65,570.77,656.98,574.88,654.51z"/>
			<path class="st19" d="M571.8,652.7l25.77-15.5c1.05-0.63,1.39-2,0.76-3.05l-4.56-7.58c-0.63-1.05-2-1.39-3.05-0.76l-25.77,15.5
				c-1.05,0.63-1.39,2-0.76,3.05l4.56,7.58C569.38,652.99,570.74,653.33,571.8,652.7z"/>
			<path class="st19" d="M576.37,645.96L576.37,645.96c0.61-0.37,0.8-1.16,0.44-1.76l-2.15-3.58c-0.37-0.61-1.16-0.8-1.76-0.44l0,0
				c-0.61,0.37-0.8,1.16-0.44,1.76l2.15,3.58C574.98,646.13,575.76,646.32,576.37,645.96z"/>
			<path class="st19" d="M589.54,638.04L589.54,638.04c0.61-0.37,0.8-1.16,0.44-1.76l-2.15-3.58c-0.37-0.61-1.16-0.8-1.76-0.44l0,0
				c-0.61,0.37-0.8,1.16-0.44,1.76l2.15,3.58C588.14,638.21,588.93,638.4,589.54,638.04z"/>
		</g>
		<path class="st19" d="M561.65,655.85l-1.41,0.87c-0.93,0.58-2.16,0.28-2.73-0.65l-1.84-2.99c-0.58-0.93-0.28-2.16,0.65-2.73
			l1.41-0.87c0.93-0.58,2.16-0.28,2.73,0.65l1.84,2.99C562.87,654.05,562.58,655.27,561.65,655.85z"/>
		<g>
			
				<rect x="584.25" y="621.55" transform="matrix(-0.8569 0.5154 -0.5154 -0.8569 1407.4272 856.1874)" class="st19" width="1.27" height="3.75"/>
			<circle class="st19" cx="583.23" cy="620.68" r="2.02"/>
			
				<rect x="565.98" y="632.54" transform="matrix(-0.8569 0.5154 -0.5154 -0.8569 1379.1688 886.0071)" class="st19" width="1.27" height="3.75"/>
			<circle class="st19" cx="564.97" cy="631.67" r="2.02"/>
		</g>
	</g>
	<g>
		<g id="face_4_">
			<path class="st42" d="M163.9,459.94l-25.35,8.77c-4.53,1.57-9.48-0.84-11.05-5.37l-0.73-2.11c-1.57-4.53,0.84-9.48,5.37-11.05
				l25.35-8.77c4.53-1.57,9.48,0.84,11.05,5.37l0.73,2.11C170.84,453.43,168.43,458.38,163.9,459.94z"/>
			<path class="st19" d="M155.38,462.89l-25.35,8.77c-4.53,1.57-9.48-0.84-11.05-5.37l-0.73-2.11c-1.57-4.53,0.84-9.48,5.37-11.05
				l25.35-8.77c4.53-1.57,9.48,0.84,11.05,5.37l0.73,2.11C162.32,456.38,159.92,461.32,155.38,462.89z"/>
			<path class="st19" d="M155.38,462.89l-3.89,1.34c0,0,11.61-4.02,6.38-17.88c0.94,0.91,1.69,2.06,2.14,3.38l0.73,2.11
				C162.32,456.38,159.92,461.32,155.38,462.89z"/>
			<path class="st19" d="M155.98,459.36l-28.42,9.83c-1.16,0.4-2.43-0.21-2.83-1.37l-2.89-8.36c-0.4-1.16,0.21-2.43,1.37-2.83
				l28.42-9.83c1.16-0.4,2.43,0.21,2.83,1.37l2.89,8.36C157.76,457.7,157.14,458.96,155.98,459.36z"/>
			<path class="st19" d="M147.87,458.55L147.87,458.55c-0.67,0.23-1.4-0.12-1.63-0.79l-1.37-3.95c-0.23-0.67,0.12-1.4,0.79-1.63l0,0
				c0.67-0.23,1.4,0.12,1.63,0.79l1.37,3.95C148.9,457.59,148.54,458.32,147.87,458.55z"/>
			<path class="st19" d="M133.34,463.57L133.34,463.57c-0.67,0.23-1.4-0.12-1.63-0.79l-1.37-3.95c-0.23-0.67,0.12-1.4,0.79-1.63l0,0
				c0.67-0.23,1.4,0.12,1.63,0.79l1.37,3.95C134.37,462.61,134.02,463.34,133.34,463.57z"/>
		</g>
		<path class="st19" d="M164.9,453.59l1.57-0.52c1.04-0.35,1.6-1.47,1.25-2.51l-1.11-3.34c-0.35-1.04-1.47-1.6-2.51-1.25l-1.57,0.52
			c-1.04,0.35-1.6,1.47-1.25,2.51l1.11,3.34C162.74,453.38,163.86,453.94,164.9,453.59z"/>
		<g>
			
				<rect x="124.49" y="448.76" transform="matrix(0.9451 -0.3269 0.3269 0.9451 -140.421 65.6502)" class="st19" width="1.27" height="3.75"/>
			<circle class="st19" cx="124.08" cy="447.6" r="2.02"/>
			
				<rect x="144.64" y="441.79" transform="matrix(0.9451 -0.3269 0.3269 0.9451 -137.0369 71.8526)" class="st19" width="1.27" height="3.75"/>
			<circle class="st19" cx="144.22" cy="440.63" r="2.02"/>
		</g>
	</g>
	<g>
		<g id="face_5_">
			<path class="st42" d="M475.92,459.07l-7.45-16.04c-1.33-2.87-0.09-6.28,2.78-7.61l1.34-0.62c2.87-1.33,6.28-0.09,7.61,2.78
				l7.45,16.04c1.33,2.87,0.09,6.28-2.78,7.61l-1.34,0.62C480.66,463.19,477.25,461.94,475.92,459.07z"/>
			<path class="st19" d="M473.42,453.68l-7.45-16.04c-1.33-2.87-0.09-6.28,2.78-7.61l1.34-0.62c2.87-1.33,6.28-0.09,7.61,2.78
				l7.45,16.04c1.33,2.87,0.09,6.28-2.78,7.61l-1.34,0.62C478.16,457.79,474.75,456.55,473.42,453.68z"/>
			<path class="st19" d="M473.42,453.68l-1.14-2.46c0,0,3.42,7.35,12.16,2.99c-0.54,0.68-1.24,1.24-2.07,1.63l-1.34,0.62
				C478.16,457.79,474.75,456.55,473.42,453.68z"/>
			<path class="st19" d="M475.77,453.83l-8.36-17.99c-0.34-0.73-0.02-1.61,0.71-1.95l5.29-2.46c0.73-0.34,1.61-0.02,1.95,0.71
				l8.36,17.99c0.34,0.73,0.02,1.61-0.71,1.95l-5.29,2.46C476.99,454.89,476.11,454.57,475.77,453.83z"/>
			<path class="st19" d="M475.76,448.46L475.76,448.46c-0.2-0.42-0.01-0.93,0.41-1.13l2.5-1.16c0.42-0.2,0.93-0.01,1.13,0.41l0,0
				c0.2,0.42,0.01,0.93-0.41,1.13l-2.5,1.16C476.46,449.07,475.96,448.88,475.76,448.46z"/>
			<path class="st19" d="M471.49,439.26L471.49,439.26c-0.2-0.42-0.01-0.93,0.41-1.13l2.5-1.16c0.42-0.2,0.93-0.01,1.13,0.41l0,0
				c0.2,0.42,0.01,0.93-0.41,1.13l-2.5,1.16C472.19,439.87,471.69,439.69,471.49,439.26z"/>
		</g>
		<path class="st19" d="M480.16,459.3l0.45,0.99c0.3,0.66,1.07,0.95,1.73,0.65l2.11-0.96c0.66-0.3,0.95-1.07,0.65-1.73l-0.45-0.99
			c-0.3-0.66-1.07-0.95-1.73-0.65l-2.11,0.96C480.15,457.87,479.86,458.64,480.16,459.3z"/>
		<g>
			
				<rect x="479.02" y="431.76" transform="matrix(0.4213 0.9069 -0.9069 0.4213 670.1555 -184.227)" class="st19" width="0.84" height="2.47"/>
			<circle class="st19" cx="481.35" cy="432.11" r="1.34"/>
			
				<rect x="484.94" y="444.52" transform="matrix(0.4213 0.9069 -0.9069 0.4213 685.1503 -182.2192)" class="st19" width="0.84" height="2.47"/>
			<circle class="st19" cx="487.27" cy="444.86" r="1.34"/>
		</g>
	</g>
	<g>
		<g id="face_6_">
			<path class="st42" d="M533.49,232.7l-36.63,8.51c-6.55,1.52-13.09-2.55-14.61-9.1l-0.71-3.05c-1.52-6.55,2.55-13.09,9.1-14.61
				l36.63-8.51c6.55-1.52,13.09,2.55,14.61,9.1l0.71,3.05C544.11,224.63,540.04,231.18,533.49,232.7z"/>
			<path class="st19" d="M521.18,235.56l-36.63,8.51c-6.55,1.52-13.09-2.55-14.61-9.1l-0.71-3.05c-1.52-6.55,2.55-13.09,9.1-14.61
				l36.63-8.51c6.55-1.52,13.09,2.55,14.61,9.1l0.71,3.05C531.8,227.49,527.73,234.04,521.18,235.56z"/>
			<path class="st19" d="M521.18,235.56l-5.62,1.3c0,0,16.78-3.9,11.52-24c1.18,1.41,2.05,3.12,2.49,5.03l0.71,3.05
				C531.8,227.49,527.73,234.04,521.18,235.56z"/>
			<path class="st19" d="M522.53,230.73l-41.06,9.54c-1.68,0.39-3.35-0.65-3.74-2.33l-2.8-12.08c-0.39-1.68,0.65-3.35,2.33-3.74
				l41.06-9.54c1.68-0.39,3.35,0.65,3.74,2.33l2.81,12.08C525.25,228.66,524.2,230.34,522.53,230.73z"/>
			<path class="st19" d="M511.34,228.4L511.34,228.4c-0.97,0.23-1.94-0.38-2.16-1.35l-1.32-5.7c-0.23-0.97,0.38-1.94,1.35-2.16l0,0
				c0.97-0.23,1.94,0.38,2.16,1.35l1.32,5.7C512.91,227.21,512.31,228.18,511.34,228.4z"/>
			<path class="st19" d="M490.35,233.28L490.35,233.28c-0.97,0.23-1.94-0.38-2.16-1.35l-1.32-5.7c-0.23-0.97,0.38-1.94,1.35-2.16
				l0,0c0.97-0.23,1.94,0.38,2.16,1.35l1.32,5.7C491.92,232.09,491.32,233.05,490.35,233.28z"/>
		</g>
		<path class="st19" d="M535.82,223.99l2.26-0.5c1.5-0.33,2.45-1.82,2.12-3.32l-1.07-4.82c-0.33-1.5-1.82-2.45-3.32-2.12l-2.26,0.5
			c-1.5,0.33-2.45,1.82-2.12,3.32l1.07,4.82C532.83,223.37,534.31,224.32,535.82,223.99z"/>
		<g>
			
				<rect x="479.9" y="211.4" transform="matrix(0.9741 -0.2263 0.2263 0.9741 -35.9573 114.3316)" class="st19" width="1.77" height="5.25"/>
			<circle class="st19" cx="479.77" cy="209.65" r="2.84"/>
			
				<rect x="509.01" y="204.64" transform="matrix(0.9741 -0.2263 0.2263 0.9741 -33.6723 120.7433)" class="st19" width="1.77" height="5.25"/>
			<circle class="st19" cx="508.88" cy="202.89" r="2.84"/>
		</g>
	</g>
</g>
</svg>
