<?xml version="1.0" encoding="utf-8"?>
<!-- Generator: Adobe Illustrator 25.2.1, SVG Export Plug-In . SVG Version: 6.00 Build 0)  -->
<svg version="1.1" xmlns="http://www.w3.org/2000/svg" xmlns:xlink="http://www.w3.org/1999/xlink" x="0px" y="0px"
	 viewBox="0 0 850.39 850.39" style="enable-background:new 0 0 850.39 850.39;" xml:space="preserve">
<style type="text/css">
	.st0{display:none;}
	.st1{opacity:0.19;fill:#4DA7EB;}
	.st2{fill:#00ACEF;}
	.st3{fill:#EFF4FA;}
	.st4{fill:#E73828;}
	.st5{fill:#F29600;}
	.st6{fill:#DBDEE1;}
	.st7{fill:#C4CACE;}
	.st8{fill:#3A475E;}
	.st9{display:inline;fill:#6B777B;}
	.st10{display:inline;fill:#D4DCE8;}
	.st11{opacity:0.39;fill:#20374F;}
	.st12{fill:#1F5DAA;}
	.st13{opacity:0.33;}
	.st14{fill:#FAF9FB;}
	.st15{fill:#88909C;}
	.st16{fill:#8ABED7;}
	.st17{fill:#A6D4ED;}
	.st18{fill:#FFFFFF;}
	.st19{fill:none;stroke:#FFFFFF;stroke-width:8;stroke-linecap:round;stroke-miterlimit:10;}
	.st20{fill:#88D0EE;}
	.st21{display:none;fill:#88909C;}
	.st22{fill:#66CC00;}
	.st23{fill:#60B202;}
	.st24{fill:#F1F6FB;}
	.st25{clip-path:url(#SVGID_3_);}
	.st26{display:inline;}
	.st27{fill:#8A929F;}
	.st28{fill:#797E86;}
	.st29{display:inline;fill:#1F5DAA;}
	.st30{display:inline;fill:#F1F6FB;}
	.st31{display:inline;fill:#DBDEE1;}
	.st32{fill:#A9DBF5;}
	.st33{fill:#8EC5E0;}
	.st34{fill:#EDF1F4;}
	.st35{display:inline;clip-path:url(#SVGID_4_);}
	.st36{display:inline;fill:#54B9DD;}
	.st37{display:inline;fill:#231815;stroke:#231815;stroke-width:0.1144;stroke-miterlimit:10;}
	.st38{display:inline;fill:#EDF1F4;}
	.st39{fill:#EAEEF1;}
	.st40{fill:#85DFFF;}
	.st41{fill:none;stroke:#EAEEF1;stroke-width:7;stroke-miterlimit:10;}
	.st42{fill:none;stroke:#FFFFFF;stroke-width:3;stroke-linecap:round;stroke-miterlimit:10;}
	.st43{opacity:0.13;fill:#151515;}
	.st44{opacity:0.52;fill:#FFFFFF;}
	.st45{fill:#F7E491;}
	.st46{opacity:0.14;fill:#231815;}
	.st47{opacity:0.36;fill:#FFFFFF;}
</style>
<g id="background" class="st0">
</g>
<g id="图层_4">
	<path class="st1" d="M804.45,368.61c-58.4,213.92-46,274.36-250.85,378.86C355.51,848.54,60.4,704.38,60.4,489.21
		S67.06,69.96,289.43,69.96S861.12,161.04,804.45,368.61z"/>
	<path class="st2" d="M792.8,354.11C865.57,563.58,657.15,751.35,436,774.64c-203.41,21.42-356.34-15.2-387.24-299.93
		C25.55,260.8,112.67,82.01,335.05,82.01S765.14,274.47,792.8,354.11z"/>
</g>
<g id="spaceship">
	<path class="st3" d="M695.52,520.56c-105.99-8.25-293.5-16.31-348.54-9.36v-33.92c55.82,5.08,242.94-2.07,348.54-9.36V520.56z"/>
	<polygon class="st4" points="390.58,535.53 458.55,551.96 425.82,522.81 484.13,496.92 432.96,480.56 470.75,438.91 387.86,459.4 	
		"/>
	<polygon class="st5" points="390.19,524.47 412.8,530.39 406.94,511.93 434.32,496.33 408.23,485.21 423.59,467.66 388.54,468.36 	
		"/>
	<path class="st6" d="M378.31,430.75c-2.66-6.08-8.52-10.14-15.15-10.43c-151.31-6.57-275.48,29.07-276.13,78.16
		c-0.66,49.14,116.05,100.21,282.95,77.24c6.81-0.94,12.43-5.77,14.37-12.37C399.72,510.94,392.86,463.97,378.31,430.75z"/>
	<path class="st7" d="M378.31,430.75c-8.57,33.35-14.37,80.45-122.37,80.45c-13.38,0-25.17-0.76-35.58-2.1
		c41.86,33.34,51.49,80.13,149.62,66.62c6.81-0.94,12.43-5.77,14.37-12.37C399.72,510.94,392.86,463.97,378.31,430.75z"/>
	<path class="st8" d="M378.31,430.75c-2.66-6.08-8.52-10.14-15.15-10.43c-92.77-4.03-175.32,7.81-225.47,28.89
		c5.81,14.77,12.35,61.99,118.25,61.99C363.94,511.2,369.74,464.1,378.31,430.75z"/>
	<g class="st0">
		<path class="st9" d="M88.08,462.73c52.35,74.15,274.09,64.28,322.19,51.29c0.59-2.89,0.51-2.25,1.19-6
			C289.15,519.23,170.81,513.82,88.08,462.73z"/>
		<path class="st10" d="M407.16,527.08c-12.24,2.15-291.65,24.81-319.07-64.35c88.09,75.58,311.04,58.69,322.19,51.29
			C409.52,517.6,408.72,521.02,407.16,527.08z"/>
		<path class="st9" d="M402.39,538.47c-12.24,2.15-286.89,13.42-314.3-75.74c52.08,83.21,309.35,66.08,320.5,58.67
			C406.96,528.29,405.13,536.12,402.39,538.47z"/>
	</g>
	<path class="st11" d="M292.62,528.57l76.93-4.08c3.75-0.27,7.16,2.92,8.29,7.77l8.33,14.05c0.91,3.9-1.07,7.93-4.09,8.33
		c-15.3,2.01-47.6,4.76-90.97-20.17C288.09,532.72,289.48,528.8,292.62,528.57z"/>
	<path class="st12" d="M292.62,528.57l76.16-4.09c3.72-0.2,7.09,2.14,8.21,5.69l3.98,12.64c0.9,2.86-1.06,5.81-4.05,6.1
		c-15.16,1.47-56.98,3.52-85.81-14.45C288.47,532.81,289.51,528.74,292.62,528.57z"/>
	<g>
		<path class="st12" d="M137.09,553.4l-18.79-10.5c8.77-15.69,11.14-53.23-0.2-84.03l19.58-9.66
			C148.58,478.81,151.53,527.57,137.09,553.4z"/>
	</g>
	<g class="st13">
		<path class="st14" d="M255.94,513.2c-42.28,0-73.84-7.59-93.81-22.57c-16.77-12.58-21.83-27.6-24.86-36.58
			c-0.54-1.59-1-2.96-1.45-4.12c-3.38-8.59-6.94-42.17,11.46-74.39c18.1-31.71,51.1-51.6,98.08-59.11
			c12.01-1.92,23.49-2.89,34.12-2.89c37.24,0,66.35,12.16,84.18,35.15c19.61,25.29,22.46,59.69,16.58,82.55
			c-0.44,1.71-0.87,3.46-1.31,5.23c-4.15,16.79-8.86,35.81-25.77,50.92C333.75,504.76,301.94,513.2,255.94,513.2z"/>
		<path class="st15" d="M279.48,315.54c95.1-0.01,108.53,77.46,98.83,115.21c-8.57,33.35-14.37,80.45-122.37,80.45
			c-105.93,0-112.45-47.24-118.26-62c-5.81-14.76-12.05-111.6,107.99-130.79C257.95,316.45,269.2,315.55,279.48,315.54
			 M279.49,311.54v4V311.54c-10.75,0-22.34,0.98-34.45,2.92c-25.49,4.07-47.23,11.94-64.61,23.37
			c-14.8,9.73-26.53,22.09-34.89,36.72c-18.76,32.85-15.05,67.29-11.58,76.12c0.44,1.11,0.89,2.46,1.42,4.02
			c3.1,9.2,8.29,24.59,25.55,37.54c20.32,15.24,52.29,22.97,95.01,22.97c46.52,0,78.76-8.61,98.56-26.31
			c17.36-15.52,22.15-34.86,26.38-51.93c0.44-1.77,0.87-3.51,1.31-5.21c6-23.34,3.09-58.45-16.94-84.28
			c-8.59-11.08-19.7-19.75-33.01-25.77C317.32,314.96,299.58,311.54,279.49,311.54L279.49,311.54z"/>
	</g>
	<g>
		<circle class="st16" cx="131.51" cy="465.46" r="4"/>
		<circle class="st17" cx="131" cy="465.22" r="4"/>
	</g>
	<g>
		<circle class="st16" cx="134.52" cy="478.96" r="4"/>
		<circle class="st17" cx="134.02" cy="478.72" r="4"/>
	</g>
	<g>
		<circle class="st16" cx="135.77" cy="493.35" r="4"/>
		<circle class="st17" cx="135.26" cy="493.11" r="4"/>
	</g>
	<g>
		<circle class="st16" cx="136.02" cy="507.74" r="4"/>
		<circle class="st17" cx="135.51" cy="507.5" r="4"/>
	</g>
	<g>
		<circle class="st16" cx="134.27" cy="522.14" r="4"/>
		<circle class="st17" cx="133.76" cy="521.89" r="4"/>
	</g>
	<g>
		<circle class="st16" cx="131.26" cy="535.71" r="4"/>
		<circle class="st17" cx="130.75" cy="535.47" r="4"/>
	</g>
	<path class="st3" d="M765.09,447.03c0.02-0.56,0.04-1.11,0.04-1.68c0-27.6-22.38-49.98-49.98-49.98
		c-16.89,0-31.82,8.39-40.86,21.22c-18.3,2.81-32.32,18.62-32.32,37.71c0,16.97,11.09,31.35,26.41,36.31
		c-14.6,2.41-25.74,15.09-25.74,30.37c0,15.73,11.8,28.69,27.02,30.55c3.79,17.08,19.02,29.85,37.24,29.85
		c21.01,0,38.04-16.97,38.15-37.95c26.66-1.72,47.76-23.88,47.76-50.98C792.8,472.67,781.55,455.52,765.09,447.03z"/>
	<path class="st6" d="M680.12,485.75c-19.94,0-36.3-15.3-38-34.8c-0.1,1.11-0.16,2.22-0.16,3.35c0,21.07,17.08,38.16,38.16,38.16
		s38.16-17.08,38.16-38.16c0-1.13-0.06-2.25-0.16-3.35C716.42,470.45,700.06,485.75,680.12,485.75z"/>
	<path class="st6" d="M721.59,399.88c6.9,0,13.56,1.04,19.84,2.96c-7.64-4.73-16.64-7.47-26.28-7.47
		c-19.77,0-36.86,11.48-44.97,28.14C682.62,409.05,701.03,399.88,721.59,399.88z"/>
	<path class="st6" d="M766.31,447.67c11.9,11.23,19.34,27.14,19.34,44.79c0,17.65-7.44,33.56-19.34,44.79
		c15.79-8.69,26.5-25.49,26.5-44.79C792.8,473.16,782.1,456.36,766.31,447.67z"/>
	<path class="st6" d="M711.27,576.45c-15.28,0-29.06-6.43-38.79-16.72c6.15,12.82,19.25,21.67,34.42,21.67
		c9.3,0,17.81-3.33,24.43-8.85C725.13,575.05,718.37,576.45,711.27,576.45z"/>
	<path class="st6" d="M745.19,474.57c2.44,4.85,3.82,10.32,3.82,16.12c0,10.02-4.11,19.08-10.74,25.6
		c8.73-4.09,14.78-12.96,14.78-23.24C753.06,485.78,750.04,479.23,745.19,474.57z"/>
	<path class="st18" d="M703.74,423.52c2.95,1.48,5.62,3.65,7.73,6.48c3.64,4.9,4.93,10.82,4.06,16.4c2.78-5.17,2.51-11.7-1.23-16.72
		C711.66,426.13,707.8,424.03,703.74,423.52z"/>
	<path class="st18" d="M699.11,500.42c1.89,2.71,3.2,5.89,3.7,9.38c0.87,6.04-0.82,11.86-4.25,16.36c4.91-3.22,7.78-9.09,6.89-15.29
		C704.82,506.49,702.43,502.81,699.11,500.42z"/>
	<path class="st18" d="M719.87,521.66c3.26-0.52,6.69-0.31,10.06,0.76c5.81,1.86,10.31,5.92,12.86,10.96
		c-0.76-5.82-4.78-10.97-10.74-12.87C727.83,519.18,723.48,519.71,719.87,521.66z"/>
	<path class="st6" d="M678.94,492.46c2.81,0,5.54,0.33,8.16,0.93c-4.12-2.05-8.76-3.2-13.67-3.2c-17.01,0-30.79,13.79-30.79,30.79
		c0,1.26,0.08,2.5,0.23,3.72C644.88,506.56,660.26,492.46,678.94,492.46z"/>
	<path class="st19" d="M253.67,324.74c-11,0.71-25.1,2.8-29.83,5.67"/>
	<path class="st19" d="M211.71,336.41c-1.51,0.46-3.42,1.36-3.42,1.36"/>
	<g>
		<path class="st20" d="M293.92,533.06c5.33,3.48,11.22,6.1,17.26,8.21c6.04,2.12,12.27,3.71,18.55,5.04
			c-6.31-1.17-12.58-2.59-18.71-4.56c-6.12-1.96-12.11-4.45-17.63-7.84c-0.24-0.14-0.31-0.45-0.16-0.69s0.45-0.31,0.69-0.16
			C293.91,533.05,293.92,533.06,293.92,533.06z"/>
	</g>
	<path class="st21" d="M399.31,390.36c-2.84-6.49-9.11-10.84-16.19-11.15c-161.67-7.02-294.33,31.06-295.03,83.51
		c-0.7,52.5,124,107.07,302.32,82.53c7.28-1,13.28-6.17,15.35-13.22C422.18,476.04,414.85,425.85,399.31,390.36z"/>
	<g>
		<path class="st7" d="M227.19,569.76l-69.98-17.73c-5.85-1.48-9.39-7.42-7.9-13.27l4.75-18.77c1.48-5.85,7.42-9.39,13.27-7.9
			l69.98,17.73c5.85,1.48,9.39,7.42,7.9,13.27l-4.75,18.77C238.98,567.71,233.03,571.24,227.19,569.76z"/>
		<g>
			<path class="st22" d="M226.56,568.22l-69.33-17.57c-5.68-1.44-9.12-7.21-7.68-12.89l4.47-17.65c1.44-5.68,7.21-9.12,12.89-7.68
				L236.25,530c5.68,1.44,9.12,7.21,7.68,12.89l-4.47,17.65C238.01,566.22,232.24,569.66,226.56,568.22z"/>
		</g>
		<path class="st23" d="M236.07,529.96l-0.31-0.08c-13.85,17.8-36.69,27.77-60.53,25.33l51.16,12.96c5.68,1.44,11.45-2,12.89-7.68
			l4.47-17.65C245.18,537.17,241.75,531.4,236.07,529.96z"/>
		<g>
			<path class="st24" d="M182.76,535.99c-0.36,1.41-1.01,2.64-1.96,3.7c-0.95,1.06-2.06,1.81-3.35,2.23
				c-1.28,0.43-2.58,0.47-3.92,0.13c-1.98-0.5-3.51-1.71-4.6-3.64l-1.52,5.99l2.88,0.73l-0.67,2.64l-8.47-2.14l0.67-2.64l2.67,0.68
				l4.19-16.53l-2.48-0.63l0.67-2.65l5.39,1.36l-0.61,2.41c0.95-0.69,1.93-1.14,2.92-1.35c0.99-0.21,1.99-0.18,2.99,0.07
				c1.4,0.35,2.55,1.02,3.46,2c0.91,0.97,1.51,2.13,1.81,3.48C183.14,533.19,183.11,534.57,182.76,535.99 M174.17,539.34
				c0.81,0.2,1.59,0.15,2.36-0.16c0.77-0.31,1.44-0.84,2.01-1.57c0.57-0.73,0.98-1.55,1.21-2.47c0.24-0.93,0.25-1.83,0.04-2.71
				c-0.2-0.89-0.6-1.65-1.19-2.28c-0.58-0.65-1.32-1.08-2.2-1.31c-0.92-0.23-1.81-0.19-2.66,0.12c-0.86,0.3-1.59,0.81-2.2,1.52
				c-0.61,0.71-1.04,1.55-1.28,2.53c-0.4,1.57-0.23,2.92,0.51,4.05C171.53,538.19,172.66,538.95,174.17,539.34"/>
			<path class="st24" d="M193.18,525.13c-0.12,0.49-0.4,0.86-0.84,1.13c-0.44,0.27-0.89,0.34-1.37,0.22s-0.84-0.4-1.09-0.84
				c-0.25-0.44-0.31-0.9-0.19-1.39c0.12-0.49,0.4-0.87,0.83-1.13c0.43-0.27,0.88-0.34,1.36-0.22c0.5,0.13,0.87,0.4,1.12,0.83
				C193.25,524.15,193.31,524.62,193.18,525.13 M190.83,543.16l-0.67,2.64l-7.47-1.89l0.67-2.64l2.31,0.58l2.48-9.78l-2.31-0.58
				l0.67-2.65l5.22,1.32l-3.15,12.43L190.83,543.16z"/>
			<path class="st24" d="M211.05,543.16c-0.36,1.41-1.01,2.64-1.96,3.7c-0.95,1.06-2.06,1.81-3.35,2.23
				c-1.28,0.43-2.58,0.47-3.93,0.13c-1.98-0.5-3.51-1.71-4.6-3.64l-1.52,5.99l2.88,0.73l-0.67,2.64l-8.47-2.14l0.67-2.64l2.67,0.68
				l4.19-16.53l-2.48-0.63l0.67-2.65l5.39,1.36l-0.61,2.41c0.95-0.69,1.93-1.14,2.92-1.35c0.99-0.21,1.99-0.18,2.99,0.07
				c1.4,0.35,2.55,1.02,3.46,2c0.91,0.97,1.51,2.13,1.81,3.48C211.43,540.36,211.41,541.74,211.05,543.16 M202.46,546.5
				c0.81,0.2,1.59,0.15,2.36-0.16c0.77-0.31,1.44-0.84,2.01-1.57c0.57-0.73,0.98-1.55,1.21-2.47c0.24-0.93,0.25-1.83,0.04-2.71
				c-0.2-0.89-0.6-1.65-1.19-2.28c-0.58-0.65-1.32-1.08-2.2-1.31c-0.92-0.23-1.81-0.19-2.66,0.12c-0.85,0.3-1.59,0.81-2.2,1.52
				s-1.04,1.55-1.28,2.53c-0.4,1.57-0.23,2.92,0.51,4.05C199.82,545.36,200.95,546.12,202.46,546.5"/>
			<polygon class="st24" points="218.96,539.88 220,549.21 225.27,541.48 223.3,540.98 223.97,538.33 231.03,540.12 230.36,542.77 
				228.18,542.22 216.02,559.54 211.1,558.29 211.76,555.71 214.67,556.45 217.55,552.46 215.79,539.08 213.32,538.45 213.99,535.8 
				221.38,537.67 220.71,540.33 			"/>
		</g>
	</g>
</g>
<g id="pipy">
	<path class="st20" d="M194.54,430.28L194.54,430.28c-1.91,0-3.46-1.55-3.46-3.46v-14.05c0-1.91,1.55-3.46,3.46-3.46l0,0
		c1.91,0,3.46,1.55,3.46,3.46v14.05C198.01,428.73,196.46,430.28,194.54,430.28z"/>
	<g>
		<defs>
			<path id="SVGID_2_" d="M245.68,318.41c125.72-20.1,143.39,70.51,132.63,112.34c-8.57,33.35-14.37,80.45-122.37,80.45
				c-105.93,0-112.45-47.24-118.26-62S125.63,337.6,245.68,318.41z"/>
		</defs>
		<clipPath id="SVGID_3_">
			<use xlink:href="#SVGID_2_"  style="overflow:visible;"/>
		</clipPath>
		<g class="st25">
			<g class="st0">
				<g class="st26">
					<path class="st27" d="M247.58,487.3l-2.34-7.28c-1.54,0.49-8.33,2.13-14.32,3.57c-8.8,2.12-14.26,3.45-15.84,4l2.52,7.22
						c1.34-0.47,8.98-2.31,15.12-3.78C240.83,489.07,245.89,487.85,247.58,487.3z"/>
				</g>
				<g class="st26">
					<path class="st28" d="M247.58,487.3l-2.38-5.33c-1.54,0.49-8.78,1.46-14.77,2.9c-8.8,2.12-13.77,2.16-15.35,2.71l2.52,7.22
						c1.34-0.47,8.98-2.31,15.12-3.78C240.83,489.07,245.89,487.85,247.58,487.3z"/>
				</g>
				<path class="st29" d="M184.75,499.6c-2.12,0.65-1.7,2.15-0.37,2.79c1.32,0.64,4.5-0.28,5.59-0.86c1.09-0.58,1.47-3.42,0.13-3.35
					S184.75,499.6,184.75,499.6z"/>
				<path class="st29" d="M184.81,489.87c-2.16-0.49-2.54,1.03-1.71,2.24c0.83,1.21,4.05,1.99,5.28,2.03s2.98-2.23,1.78-2.84
					C188.96,490.68,184.81,489.87,184.81,489.87z"/>
				<path class="st29" d="M189.46,508.01c-1.28,1.41-2.12,4.56,0.51,3.14c2.63-1.42,4.98-2.87,5.41-4.16
					c0.43-1.29,0.07-3.74-1.87-2.7C191.56,505.33,189.46,508.01,189.46,508.01z"/>
				<path class="st30" d="M218.32,485.3l2.91,9.06c0.69,2.14-0.36,4.44-2.41,5.28l-14.6,5.93c-2.27,0.92-4.86-0.31-5.63-2.69
					l-3.64-11.32c-0.76-2.38,0.62-4.89,3-5.47l15.32-3.68C215.43,481.9,217.63,483.15,218.32,485.3z"/>
				<path class="st31" d="M218.62,485.9l2.61,8.46c0.69,2.14-0.36,4.44-2.41,5.28l-13.77,5.38c-2.27,0.92-4.86-0.31-5.63-2.69
					l-2.84-10.3c-0.76-2.38,0.62-4.89,3-5.47l13.99-3.54C215.74,482.5,217.93,483.76,218.62,485.9z"/>
			</g>
			<path class="st6" d="M256.96,542.9l3.14-0.1c7.14-0.22,12.75-6.18,12.54-13.32l-0.35-11.59l-29,0.88l0.35,11.59
				C243.85,537.5,249.81,543.11,256.96,542.9z"/>
			<path class="st7" d="M256.96,542.9l3.14-0.1c7.14-0.22,12.75-6.18,12.54-13.32l-0.35-11.59l-29,0.88l2.99,11.89
				C246.49,537.8,249.81,543.11,256.96,542.9z"/>
			<path class="st32" d="M229.94,516.24c0.52,17.05,12.3,16.83,28.87,16.33c16.56-0.5,31.63-1.09,31.12-18.15
				c-0.52-17.05-14.49-34.8-31.06-34.29S229.42,499.19,229.94,516.24z"/>
			<path class="st33" d="M235.77,517.27c0.52,17.05,6.47,15.81,23.03,15.3c16.56-0.5,31.63-1.09,31.12-18.15
				c-0.52-17.05-14.49-34.8-31.06-34.29S235.25,500.21,235.77,517.27z"/>
			<path class="st24" d="M226.56,508.66c0.57,18.78,14,18.52,32.88,17.95c18.88-0.57,36.06-1.24,35.49-20.02
				s-16.48-38.31-35.36-37.74S225.99,489.87,226.56,508.66z"/>
			<path class="st34" d="M238.41,525.61c5.33,2.12,12.77,1.25,21.03,1c18.88-0.57,36.06-1.24,35.49-20.02s-16.48-38.31-35.36-37.74
				S223.22,519.57,238.41,525.61z"/>
			<g class="st0">
				<defs>
					<path id="SVGID_1_" d="M226.56,508.66c0.57,18.78,14,18.52,32.88,17.95c9.11-0.28,17.82-0.57,24.33-2.92
						c6.99-2.51-5.32-55.42-24.2-54.85S225.99,489.87,226.56,508.66z"/>
				</defs>
				<clipPath id="SVGID_4_" class="st26">
					<use xlink:href="#SVGID_1_"  style="overflow:visible;"/>
				</clipPath>
				<g class="st35">
					<path class="st6" d="M256.97,523.74l-40.19-0.88c-3.43-0.08-6.15-2.92-6.08-6.35l0.25-11.42c0.08-3.43,2.92-6.15,6.35-6.08
						l40.19,0.88c3.43,0.08,6.15,2.92,6.08,6.35l-0.25,11.42C263.24,521.09,260.4,523.81,256.97,523.74z"/>
					<g>
						<path class="st22" d="M255.92,521.86L216.45,521c-3.23-0.07-5.8-2.75-5.73-5.98l0.22-10.05c0.07-3.23,2.75-5.8,5.98-5.73
							l39.46,0.86c3.23,0.07,5.8,2.75,5.73,5.98l-0.22,10.05C261.83,519.37,259.15,521.93,255.92,521.86z"/>
					</g>
					<path class="st23" d="M256.29,500.11l-0.18,0c-5.24,11.29-16.29,19.48-29.42,21.12l29.12,0.64c3.23,0.07,5.91-2.49,5.98-5.73
						l0.22-10.05C262.08,502.86,259.52,500.18,256.29,500.11z"/>
					<g>
						<path class="st24" d="M228.36,509.95c-0.02,0.8-0.22,1.54-0.59,2.23c-0.38,0.69-0.89,1.23-1.52,1.62
							c-0.63,0.39-1.33,0.58-2.09,0.56c-1.13-0.02-2.1-0.49-2.92-1.39l-0.07,3.41l1.64,0.04l-0.03,1.5l-4.82-0.11l0.03-1.5
							l1.52,0.03l0.21-9.41l-1.41-0.03l0.03-1.51l3.07,0.07l-0.03,1.37c0.43-0.49,0.89-0.85,1.4-1.09c0.51-0.23,1.05-0.34,1.62-0.33
							c0.79,0.02,1.5,0.23,2.11,0.65c0.61,0.41,1.08,0.96,1.41,1.65C228.22,508.4,228.38,509.15,228.36,509.95 M224.16,512.82
							c0.46,0.01,0.88-0.12,1.25-0.38c0.37-0.26,0.67-0.63,0.89-1.09c0.22-0.46,0.33-0.96,0.34-1.48c0.01-0.53-0.09-1.01-0.31-1.46
							c-0.22-0.45-0.53-0.81-0.92-1.08c-0.39-0.28-0.84-0.42-1.34-0.43c-0.52-0.01-1,0.12-1.42,0.39c-0.42,0.27-0.75,0.63-0.99,1.09
							c-0.24,0.46-0.37,0.96-0.38,1.52c-0.02,0.89,0.24,1.6,0.78,2.12C222.6,512.53,223.3,512.8,224.16,512.82"/>
						<path class="st24" d="M232.63,502.82c-0.01,0.28-0.11,0.51-0.31,0.71c-0.2,0.2-0.44,0.29-0.71,0.29
							c-0.27-0.01-0.5-0.11-0.69-0.32c-0.19-0.21-0.28-0.45-0.27-0.72c0.01-0.28,0.11-0.52,0.3-0.71c0.2-0.2,0.43-0.29,0.7-0.29
							c0.28,0.01,0.52,0.11,0.71,0.31C232.54,502.29,232.63,502.53,232.63,502.82 M233.59,512.81l-0.03,1.5l-4.25-0.09l0.03-1.5
							l1.31,0.03l0.12-5.57l-1.31-0.03l0.03-1.51l2.97,0.06l-0.15,7.08L233.59,512.81z"/>
						<path class="st24" d="M244.47,510.3c-0.02,0.8-0.22,1.54-0.59,2.23c-0.38,0.69-0.89,1.23-1.52,1.62
							c-0.63,0.39-1.33,0.58-2.09,0.56c-1.13-0.02-2.1-0.49-2.92-1.39l-0.07,3.41l1.64,0.04l-0.03,1.5l-4.82-0.11l0.03-1.5
							l1.52,0.03l0.21-9.41l-1.41-0.03l0.03-1.51l3.07,0.07l-0.03,1.37c0.43-0.49,0.89-0.85,1.4-1.09c0.51-0.23,1.05-0.34,1.62-0.33
							c0.79,0.02,1.5,0.23,2.11,0.65c0.61,0.41,1.08,0.96,1.41,1.65C244.33,508.75,244.48,509.5,244.47,510.3 M240.26,513.17
							c0.46,0.01,0.88-0.12,1.25-0.38c0.37-0.26,0.67-0.63,0.89-1.09c0.22-0.46,0.33-0.96,0.34-1.48c0.01-0.53-0.09-1.01-0.31-1.46
							c-0.22-0.45-0.53-0.81-0.92-1.08c-0.39-0.28-0.84-0.42-1.34-0.43c-0.52-0.01-1,0.12-1.42,0.39c-0.42,0.27-0.75,0.63-0.99,1.09
							s-0.37,0.96-0.38,1.52c-0.02,0.89,0.24,1.6,0.78,2.12C238.7,512.88,239.4,513.15,240.26,513.17"/>
						<polygon class="st24" points="248.31,507.56 250.03,512.45 251.91,507.64 250.79,507.62 250.82,506.11 254.84,506.2 
							254.8,507.71 253.56,507.68 249.17,518.5 246.37,518.44 246.4,516.97 248.06,517 249.11,514.5 246.51,507.52 245.1,507.49 
							245.14,505.98 249.35,506.08 249.31,507.59 						"/>
					</g>
				</g>
			</g>
			<g class="st0">
				
					<ellipse transform="matrix(0.8505 -0.526 0.526 0.8505 -215.6434 220.3929)" class="st36" cx="279.86" cy="489.52" rx="5.28" ry="7.61"/>
				
					<ellipse transform="matrix(0.8505 -0.526 0.526 0.8505 -214.9785 221)" class="st37" cx="281.26" cy="488.66" rx="3.64" ry="5.24"/>
			</g>
			<g class="st0">
				<g class="st26">
					<path class="st27" d="M278.85,486.63c-0.8,1.06-0.44,4.04,0.46,4.9c1.64,1.57,5.18,4.34,10.5,8.37
						c4.76,3.6,10.69,8.08,11.68,8.99l4.91-5.32c-1.16-1.08-5.4-4.29-12.23-9.45c-3.99-3.02-8.36-6.5-10.35-7.92
						C281.75,484.73,279.52,485.75,278.85,486.63z"/>
				</g>
				<g class="st26">
					<path class="st28" d="M281.32,491.43c1.45,2.31,3.78,3.63,8.87,7.95c4.51,3.83,10.32,8.61,11.31,9.52l4.91-5.32
						c-1.16-1.08-5.4-4.29-12.23-9.45c-3.99-3.02-7.3-5.57-9.21-7.1c-0.49-0.39-1.15-0.59-1.74-0.38
						C281.82,487.14,280.72,490.46,281.32,491.43z"/>
				</g>
				<path class="st29" d="M323.79,511.83c1.22-1.44,4.81,0.28,5.96,1.72c1.15,1.43-1.7,4.55-4.53,2.52S322.61,513.23,323.79,511.83z
					"/>
				<path class="st29" d="M323.65,520.9c1.6,1.37,0.66,2.51-0.73,2.57c-1.39,0.05-3.8-1.95-4.52-2.86s0.01-3.52,1.16-2.96
					S323.65,520.9,323.65,520.9z"/>
				<path class="st29" d="M316.38,526.42c0.58,1.71,0.12,4.76-1.63,2.54s-3.24-4.37-3.12-5.65c0.12-1.28,1.35-3.27,2.65-1.64
					S316.38,526.42,316.38,526.42z"/>
				<path class="st30" d="M299.93,495.8l-5.96,6.76c-1.41,1.6-1.37,3.99,0.1,5.49l10.42,10.67c1.62,1.66,4.34,1.57,5.9-0.21
					l7.44-8.45c1.56-1.77,1.32-4.48-0.54-5.88l-11.9-8.99C303.72,493.94,301.34,494.2,299.93,495.8z"/>
				<path class="st38" d="M300.41,514.55l4.08,4.17c1.62,1.66,4.34,1.57,5.9-0.21l7.11-8.08
					C315.63,511.38,307.36,519.38,300.41,514.55z"/>
			</g>
		</g>
	</g>
	<g>
		<g id="face">
			<path class="st6" d="M337.9,461.46H222.27c-20.68,0-37.44-16.76-37.44-37.44v-9.64c0-20.68,16.76-37.44,37.44-37.44H337.9
				c20.68,0,37.44,16.76,37.44,37.44v9.64C375.34,444.69,358.58,461.46,337.9,461.46z"/>
			<path class="st24" d="M299.05,461.46H183.41c-20.68,0-37.44-16.76-37.44-37.44v-9.64c0-20.68,16.76-37.44,37.44-37.44h115.63
				c20.68,0,37.44,16.76,37.44,37.44v9.64C336.49,444.69,319.72,461.46,299.05,461.46z"/>
			<path class="st39" d="M299.05,461.46h-17.73c0,0,52.98,0,51.2-63.88c2.54,5.05,3.97,10.76,3.97,16.8v9.64
				C336.49,444.69,319.72,461.46,299.05,461.46z"/>
			<path class="st12" d="M306.45,447.93H176.81c-5.29,0-9.59-4.29-9.59-9.59v-38.12c0-5.29,4.29-9.59,9.59-9.59h129.64
				c5.29,0,9.59,4.29,9.59,9.59v38.12C316.03,443.64,311.74,447.93,306.45,447.93z"/>
			<path class="st40" d="M274.55,433.18L274.55,433.18c-3.06,0-5.54-2.48-5.54-5.54v-18.01c0-3.06,2.48-5.54,5.54-5.54h0
				c3.06,0,5.54,2.48,5.54,5.54v18.01C280.09,430.7,277.61,433.18,274.55,433.18z"/>
			<path class="st40" d="M208.28,433.18L208.28,433.18c-3.06,0-5.54-2.48-5.54-5.54v-18.01c0-3.06,2.48-5.54,5.54-5.54l0,0
				c3.06,0,5.54,2.48,5.54,5.54v18.01C213.83,430.7,211.34,433.18,208.28,433.18z"/>
		</g>
		<path class="st27" d="M350.94,436.99l7.11,0.07c4.73,0.05,8.6-3.74,8.65-8.47l0.16-15.17c0.05-4.73-3.74-8.6-8.47-8.65l-7.11-0.07
			c-4.73-0.05-8.6,3.74-8.65,8.47l-0.16,15.17C342.42,433.07,346.21,436.94,350.94,436.99z"/>
		<g>
			<path class="st41" d="M200.17,355.05c-4.42,9.23-7.14,11.57-7.14,21.89"/>
			<path class="st41" d="M291.24,355.05c-4.42,9.23-7.14,11.57-7.14,21.89"/>
			<circle class="st39" cx="200.17" cy="355.05" r="8.73"/>
			<circle class="st39" cx="292.08" cy="355.05" r="8.73"/>
			<path class="st42" d="M194.32,354.11c0.94-2.31,2.83-4.12,5.19-4.96"/>
			<path class="st42" d="M286.76,354.11c0.94-2.31,2.83-4.12,5.19-4.96"/>
		</g>
	</g>
</g>
<g id="planet">
	<g>
		<path class="st33" d="M125.48,212.63c15.62-24.3,47.98-31.33,72.28-15.71c24.3,15.62,31.33,47.98,15.71,72.28
			c-15.62,24.3-47.98,31.33-72.28,15.71C116.89,269.29,109.86,236.93,125.48,212.63"/>
		<path class="st43" d="M197.56,196.96c-1.04-0.67-2.09-1.29-3.15-1.87c21.42,16.37,27.03,46.73,12.19,69.81
			c-14.95,23.26-45.25,30.7-69.13,17.58c1.13,0.86,2.3,1.69,3.52,2.47c24.3,15.62,56.66,8.59,72.28-15.71
			C228.89,244.94,221.85,212.58,197.56,196.96z"/>
		<path class="st44" d="M146.32,208.06c4.55,0.22,7.2,3.94,5.93,8.31c-1.27,4.37-5.99,7.74-10.54,7.52
			c-4.55-0.22-7.2-3.94-5.93-8.31C137.05,211.21,141.77,207.85,146.32,208.06"/>
		<path class="st44" d="M165.61,197.08c6.89-3.59,17.15-2.27,22.9,2.95c5.76,5.22,4.84,12.37-2.06,15.97
			c-6.89,3.59-17.15,2.27-22.9-2.95C157.79,207.83,158.71,200.68,165.61,197.08"/>
		<path class="st44" d="M163.66,270.56c5.47-4.87,15.57-7.06,22.56-4.9c7,2.16,8.23,7.86,2.77,12.73
			c-5.47,4.87-15.57,7.06-22.56,4.9C159.43,281.12,158.19,275.42,163.66,270.56"/>
	</g>
	<g>
		<g>
			<path class="st45" d="M539.79,190.85c40.85-40.85,107.09-40.85,147.94,0c40.85,40.85,40.85,107.09,0,147.94
				c-40.85,40.85-107.09,40.85-147.94,0C498.94,297.94,498.94,231.7,539.79,190.85"/>
			<path class="st46" d="M687.31,190.85c-1.74-1.74-3.54-3.41-5.37-5c34.91,41.1,32.97,102.8-5.83,141.6
				c-39.11,39.11-101.48,40.77-142.57,5c1.84,2.17,3.78,4.28,5.83,6.33c40.85,40.85,107.09,40.85,147.94,0
				C728.16,297.94,728.16,231.7,687.31,190.85z"/>
			<path class="st47" d="M541,209.42c6.7-3.62,11.22-0.44,10.09,7.09c-1.13,7.53-7.47,16.56-14.17,20.18
				c-6.7,3.62-11.22,0.44-10.09-7.09C527.95,222.07,534.3,213.04,541,209.42"/>
			<path class="st47" d="M575.02,193.95c7.63-12.74,25.85-22.53,40.68-21.87c14.83,0.66,20.67,11.52,13.04,24.26
				c-7.63,12.74-25.85,22.53-40.68,21.87C573.22,217.54,567.38,206.68,575.02,193.95"/>
			<path class="st47" d="M608.04,327.69c7.63-12.74,25.85-22.53,40.68-21.87c14.83,0.66,20.67,11.52,13.04,24.26
				c-7.63,12.74-25.85,22.53-40.68,21.87C606.24,351.29,600.41,340.43,608.04,327.69"/>
		</g>
		<path class="st18" d="M750.77,221.53c-3.17-9.94-21.5-13.99-48.51-12.49c4.55,7.2,8.14,14.83,10.76,22.72
			c12.08,36.38-192.71,82.48-197.76,68.37c-1.14-3.2-2.13-6.44-2.95-9.71c-1.57-6.25-2.55-12.62-2.95-19.02
			c-21.31,13.86-32.89,27.13-29.83,36.7c6.29,19.69,72.1,16.28,147-7.63S757.06,241.23,750.77,221.53z"/>
	</g>
</g>
<g id="stars">
	<path class="st45" d="M326.54,221.69c-2.66,7.53-5.81,9.2-11.58,10.65c7.7,2.45,8.93,9.82,11.58,18.8
		c1.42-10.82,2.59-16.74,8.95-18.8C330.13,230.34,328.07,230.23,326.54,221.69z"/>
	<path class="st45" d="M552.58,581.39c-2.66,7.53-5.81,9.2-11.58,10.65c7.7,2.45,8.93,9.82,11.58,18.8
		c1.42-10.82,2.59-16.74,8.95-18.8C556.17,590.04,554.1,589.93,552.58,581.39z"/>
	<path class="st45" d="M273.8,649c-2.66,7.53-5.81,9.2-11.58,10.65c7.7,2.45,8.93,9.82,11.58,18.8c1.42-10.82,2.59-16.74,8.95-18.8
		C277.39,657.65,275.33,657.54,273.8,649z"/>
</g>
</svg>
