<?xml version="1.0" standalone="no"?><!DOCTYPE svg PUBLIC "-//W3C//DTD SVG 1.1//EN" "http://www.w3.org/Graphics/SVG/1.1/DTD/svg11.dtd"><svg t="1669798765114" class="icon" viewBox="0 0 1030 1024" version="1.1" xmlns="http://www.w3.org/2000/svg" p-id="244335" xmlns:xlink="http://www.w3.org/1999/xlink" width="201.171875" height="200"><path d="M416 332.8C505.6 332.8 576 256 576 172.8S505.6 12.8 416 12.8 256 83.2 256 172.8C256 256 326.4 332.8 416 332.8z m0-256c51.2 0 96 38.4 96 96 0 51.2-44.8 96-96 96S320 224 320 172.8c0-57.6 44.8-96 96-96zM755.2 601.6c89.6 0 160-70.4 160-160s-70.4-160-160-160-160 70.4-160 160c0 83.2 70.4 160 160 160z m0-256c51.2 0 96 44.8 96 96s-44.8 96-96 96-96-44.8-96-96c0-57.6 44.8-96 96-96zM896 672h-243.2c-44.8-44.8-89.6-51.2-89.6-51.2H422.4s-38.4-32-108.8-64c-44.8-19.2-83.2-25.6-102.4-32v-25.6c0-19.2-12.8-32-32-32H38.4c-19.2 0-32 12.8-32 32v384c0 19.2 12.8 32 32 32h147.2c6.4 0 12.8 0 12.8-6.4 32 12.8 198.4 89.6 198.4 89.6h121.6l428.8-160s83.2-25.6 83.2-44.8c0-38.4-32-121.6-134.4-121.6zM128 851.2h-38.4c-12.8 0-19.2-6.4-19.2-19.2V550.4c0-12.8 6.4-19.2 19.2-19.2H128c12.8 0 19.2 6.4 19.2 19.2V832c0 12.8-6.4 19.2-19.2 19.2z m819.2-76.8l-441.6 147.2H403.2l-192-89.6V588.8c6.4 0 25.6 6.4 76.8 25.6 70.4 32 96 64 96 64h153.6s19.2 0 44.8 19.2c32 25.6 44.8 51.2 44.8 51.2H358.4s-32 0-32 25.6c0 32 25.6 38.4 25.6 38.4h332.8c38.4 0 32-38.4 12.8-76.8 0 0 0-6.4-6.4-6.4H896s38.4 0 51.2 12.8 0 32 0 32z" fill="#00adef" p-id="244336" data-spm-anchor-id="a313x.7781069.0.i128" class=""></path></svg>