<?xml version="1.0" standalone="no"?><!DOCTYPE svg PUBLIC "-//W3C//DTD SVG 1.1//EN" "http://www.w3.org/Graphics/SVG/1.1/DTD/svg11.dtd"><svg t="1669798611608" class="icon" viewBox="0 0 1024 1024" version="1.1" xmlns="http://www.w3.org/2000/svg" p-id="243121" xmlns:xlink="http://www.w3.org/1999/xlink" width="200" height="200"><path d="M707.584 61.44c8.704 0 15.36 6.656 15.36 15.36v870.4c0 8.704-6.656 15.36-15.36 15.36H314.368c-8.704 0-15.36-6.656-15.36-15.36V76.8c0-8.704 6.656-15.36 15.36-15.36h393.216m0-61.44H314.368c-42.496 0-76.8 34.304-76.8 76.8v870.4c0 42.496 34.304 76.8 76.8 76.8h393.216c42.496 0 76.8-34.304 76.8-76.8V76.8c0-42.496-34.304-76.8-76.8-76.8z" p-id="243122" data-spm-anchor-id="a313x.7781069.0.i124" class="" fill="#00adef"></path><path d="M378.88 226.816h270.336v61.44H378.88zM378.88 359.936h270.336v61.44H378.88zM476.16 690.176h64v64H476.16zM962.56 91.136h-129.536v61.44H962.56v745.984h-129.536v61.44H962.56c33.792 0 61.44-27.648 61.44-61.44V152.576c0-33.792-27.648-61.44-61.44-61.44zM68.096 91.136h129.536v61.44H68.096v745.984h129.536v61.44H68.096c-33.792 0-61.44-27.648-61.44-61.44V152.576c0-33.792 27.648-61.44 61.44-61.44z" p-id="243123" data-spm-anchor-id="a313x.7781069.0.i125" class="" fill="#00adef"></path></svg>