<?xml version="1.0" standalone="no"?><!DOCTYPE svg PUBLIC "-//W3C//DTD SVG 1.1//EN" "http://www.w3.org/Graphics/SVG/1.1/DTD/svg11.dtd"><svg t="1668494705893" class="icon" viewBox="0 0 1024 1024" version="1.1" xmlns="http://www.w3.org/2000/svg" p-id="12735" xmlns:xlink="http://www.w3.org/1999/xlink" width="200" height="200"><path d="M599.488 126.016c0-42.24-34.56-76.8-76.8-76.8s-76.8 34.56-76.8 76.8v772.032c0 42.24 34.56 76.736 76.8 76.736s76.8-34.496 76.8-76.736v-92.736h-0.96c0.384-1.6 1.024-3.136 1.024-4.864a22.4 22.4 0 0 0-44.864 0c0 1.728 0.64 3.264 0.96 4.864h-0.96V714.688h0.64c-0.128 1.152-0.64 2.112-0.64 3.328a22.4 22.4 0 1 0 44.864 0c0-1.216-0.512-2.176-0.704-3.328h0.704V126.016z" fill="" p-id="12736"></path><path d="M522.688 930.048a32 32 0 0 1-32-32V126.016a32 32 0 0 1 64 0v772.032a32 32 0 0 1-32 32z" fill="#977327" p-id="12737"></path><path d="M714.944 181.248h-499.2v0.192L92.032 252.608v0.064a29.312 29.312 0 0 0-0.064 54.528v0.064l123.776 71.104v0.192h499.2c12.288 0 22.4-10.112 22.4-22.4V203.648a22.528 22.528 0 0 0-22.4-22.4z" fill="" p-id="12738"></path><path d="M228.096 333.76l-94.08-54.016 93.952-53.696h464.512v107.712z" fill="#5C79AA" p-id="12739"></path><path d="M926.144 558.336a33.6 33.6 0 0 0-14.72-27.328v-0.32l-114.368-89.408H244.416a22.528 22.528 0 0 0-22.4 22.4V652.8c0 12.352 10.112 22.4 22.4 22.4h552.576v-0.512l114.368-88.576V585.6a33.28 33.28 0 0 0 14.784-27.264z" fill="" p-id="12740"></path><path d="M266.816 630.464V486.08h514.752l92.224 72.128-92.864 72.256z" fill="#FFAE1F" p-id="12741"></path><path d="M379.008 253.888h52.032v52.032h-52.032zM456.256 253.888h52.032v52.032h-52.032zM533.504 253.888h52.032v52.032h-52.032z" fill="#4D6993" p-id="12742"></path><path d="M379.008 518.272h78.912v78.976H379.008zM496.256 518.272h78.912v78.976H496.256zM613.568 518.272h78.912v78.976H613.568z" fill="#E59A20" p-id="12743"></path></svg>